<?xml version="1.0" encoding="utf-8"?>
<!-- Generator: Adobe Illustrator 24.0.1, SVG Export Plug-In . SVG Version: 6.00 Build 0)  -->
<svg version="1.1" id="Camada_1" xmlns="http://www.w3.org/2000/svg" xmlns:xlink="http://www.w3.org/1999/xlink" x="0px" y="0px"
	 viewBox="0 0 1178.2 883.6" style="enable-background:new 0 0 1178.2 883.6;" xml:space="preserve">
<style type="text/css">
	.st0{fill:#00871A;}
	.st1{fill:#6838AA;}
	.st2{fill:#01861B;}
	.st3{fill:#7135B0;}
	.st4{fill:#6938AA;}
</style>
<title>RobotLab - SVG</title>
<g>
	<g>
		<g>
			<path class="st0" d="M587.6,741.5c-1.1,0.8-2.5,1.3-3.9,1.1c-3,0-6,0.5-9.1,1.3c-2.3,1-5,0-6-2.1l0,0c-2.3-3.4-4.6-6.7-6.9-10.3
				c-14-21.9-27.9-43.9-41.9-65.8c-12.4-19.7-25.2-39.1-37.3-59c-8.7-14.1-18.3-27.7-27.3-41.6c-5-7.5-10.1-14.9-15.1-22.4
				c-2.3-3.4-4.1-7.2-6-10.6c-1.1-2.1-1.4-4.6-1.1-7c0-19.3,0-38.7,0-58.1c0-29.3,0.2-58.6,0-87.9c0-5.9,3.7-9.3,8-12.4
				c4.1-2.8,8.5-5.4,13.1-7.5c1.6-0.7,3-1.6,4.3-2.8c2.3-2,2.5-5.2,0.4-7.4c-0.2-0.2-0.4-0.3-0.5-0.5c-1.8-1.6-3.9-2.6-6.4-3.1
				c-3.2-0.7-6.4-1-9.6-1c-6.7,0.2-13.5,0.2-20.4,0c-17.6-0.5-35.2-1.3-52.7-1c-6.6,0.2-13.3,0-19.9,0.2c-5,0-9.9,0.8-14.9,1
				c-9.8,0.3-19.5,1.3-29.3,3.3c-2.3,0.3-4.4,1.1-6,2.6c-3,2.9-2.5,6.7,1.6,8.4c1.6,0.7,3.4,1.1,5,1.5c9.1,2.1,18.5,2.9,27.7,2.3
				c7.6-0.7,15.4-0.3,23.3-0.5c16.9-0.3,33.9-1,50.8-1c5.1,0,10.3-0.7,15.4-0.5c2.5,0,4.8,0.3,7.1,1.1c3,1.3,3.7,3.3,1.6,5.7
				c-2.8,3.6-7.3,6.1-12.1,6.6c-10.8,1.3-21.5,1.5-32.3,1.8c-27,0.8-54,0.5-80.8,1c-4.8,0-9.6,0.5-14.6,0.7
				c-8.3,0.3-16-3.6-20.1-10.3c-2.3-3.4-4.4-6.7-4.6-11c-0.2-4.1,1.4-8,4.1-11.1c4.6-5.7,11.5-9.3,19.2-10.3
				c10.7-1.6,21.5-2.6,32.3-2.6c18.8,0.2,37.8-1.1,56.6-1c32,0.2,63.9,0,95.9,0c9.2,0,16.5,3.8,20.1,11.6c4.1,9.5,2.3,16.7-6,23.3
				c-1.1,0.8-2.3,1.6-3.6,2.3c-6.4,3.4-6.6,3.4-7.1,10.3c-0.4,4.1-0.4,8.4,0.2,12.4c0.9,8,0.5,16,0.7,24.1
				c0.2,11.6-0.2,23.3,0.4,34.9c1.1,21.9,0.4,43.7,0.7,65.7c-0.2,2,0.4,3.9,1.4,5.4c6.9,8.7,12.6,18,18.6,27.2
				c16.9,25.4,33.6,50.8,50.3,76.3c18.3,27.7,36.6,55.5,54.7,83.2c5.1,7.9,10.5,15.7,15.4,23.7c4.1,6.7,3.6,7.5-4.4,8.7
				c-0.4,0-0.7,0.2-0.9,0.2c-4.4,0.8-7.5-0.3-9.9-4.3c-16.5-25.5-33.2-51.1-49.9-76.5c-21.7-33.1-43.5-66.2-65.2-99.2
				c-7.5-11.3-14.9-22.6-22.6-33.9c-1.2-2-1.8-4.1-1.4-6.4c0-21.8,0.4-43.6-0.2-65.2c-0.7-22.9-0.4-45.9-0.7-68.8
				c0.2-1.8-0.2-3.6-0.7-5.2c-1.1-3.1-4.1-5.2-7.5-5.6c-3.7-0.5-7.3,1.3-8.7,4.4c-1.1,2-1.6,4.3-1.4,6.6c0,9.2,0,18.5,0.2,27.7
				c0,15.1-0.4,30.1,0.2,45c0.7,20.6,0.4,41.4,0.9,62.1c0,5.2,1.6,10.3,4.6,14.7c14.6,21.3,28.8,43.1,43,64.9
				c18.5,28.2,36.9,56.3,55.2,84.5c11.4,17.5,22.9,34.9,34.3,52.4C586.5,738.5,587.8,739.7,587.6,741.5z"/>
			<path class="st1" d="M287.6,380c6.2-0.3,12.4-0.3,18.8-0.2c-2.8,11.8-0.5,23.3-0.4,34.9c0.5,16.5,1.4,33.1,2.3,49.5
				c0.9,16.9,1.8,33.9,2.7,50.8c0.4,4.6-0.7,9.2-2.8,13.3c-16.3,31.6-32.5,63.2-48.7,94.8c-17.9,35-36,70.3-54,105.3
				c-5.9,11.3-11.9,22.4-17.2,33.9c-3.7,8-6.7,16.4-9.1,24.9c-1.4,4.4-2.5,9-3.2,13.6c-0.4,2.3-0.4,4.7,0,7
				c0.7,6.1,4.3,11.5,9.8,14.7c5.5,3.4,11.5,5.9,18.1,7.4c14.9,3.8,30.4,5.6,46,5.4c47.6,0,95.2,0.2,142.8-0.3
				c41.7-0.5,83.3-0.3,124.8-0.8c18.6-0.2,37.5-0.2,56.1-0.7c11.2-0.3,22.6-1.3,33.2-5.4c9.6-3.8,17.8-9.3,22.9-17.7
				c6.6-10.3,6.4-21.3,2.5-32.4c-0.7-2.1-2.3-3.9-2.1-6.6c5.1-1,10.5-1.5,15.8-1.5c1.4,0,2.8,0.8,3.4,2.1c4.3,7.9,7.5,15.9,6.7,25.2
				c-0.7,10.8-5.3,19.7-12.8,27.8c-5.7,6.2-12.1,11.3-20.2,13.9c-6,2-12.4,3.3-18.8,4.1c-5.3,0.7-10.7,0.8-16,0.5
				c-5.5-0.2-11,0.2-16.3,0.8c-4.3,0.3-8.3,0.3-12.6,0.5c-28.4,1.5-56.8,1-85.2,0.7c-84.5-0.7-169.2-0.2-253.8-0.7
				c-6.4,0-12.8,0-19.2-1.5c-3.7-0.8-7.6-0.5-11.5-1.3c-21.5-4.9-35-21.1-36.6-41.3c-0.9-12.6,2.5-24.1,8.9-35
				c7.6-13.3,14.7-26.9,22-40.3c35.5-65.7,71.2-131.2,106.7-196.9c1.2-2.5,2-5.1,2-7.7c0.2-12.1-0.9-24.1-1.2-36.2
				c-0.5-14.7-1.2-29.5-2-44.1c-0.7-14.6-1.4-29.2-2-43.7c-0.2-3.9-0.7-8-0.7-12C286.8,383.5,286.9,381.7,287.6,380z"/>
			<path class="st1" d="M591.7,774.6c4.8-1,9.6-1.6,14.6-1.5c1.2,0,2.7,0.5,3.4,1.6c4.6,6.7,7.8,13.8,6.4,21.9
				c-1.1,6.1-4.8,10.3-10.1,13.6c-6.6,4.1-14,5.7-21.8,6.7c-2.1,0.2-4.3,0.3-6.2,0.3c-49,0.3-98.2,0.3-147.2,1
				c-41.7,0.5-83.6,0.5-125.4,1c-11,0.2-22,0.8-32.9,0.3c-16.2-0.7-32.3,0-48.3-2.5c-6.4-0.8-12.8-2.1-18.8-3.8
				c-1.4-0.3-2.7-0.8-4.1-1.3c-6-2.5-7.8-5.1-7.3-11.1c0.5-4.3,1.6-8.5,3.2-12.6c4.3-10.8,9.4-21.1,14.6-31.6
				c20.1-39.5,40.3-78.9,60.4-118.2c9.6-18.7,19.2-37.3,28.8-56.2c7.6-14.7,14.9-29.6,22.7-44.4c5.5-10.5,7.5-22.3,5.7-33.9
				c-0.2-1.1-0.4-2.3-0.4-3.6c-0.4-9.8-0.7-19.7-1.2-29.5c-0.7-13.6-1.2-27-2-40.6c-0.5-11.3-1.2-22.6-2-33.9
				c-0.2-3.6-0.7-7-0.9-10.6c-0.2-2-1.4-3.6-2.1-5.2c3.6-1.3,14.4-1.8,21.3-0.8c0.4,4.4,1.1,9,1.1,13.4c0.5,14.2,0.9,28.5,1.4,42.9
				c0.7,17.2,1.2,34.6,1.8,51.8c0.4,11,0.5,21.9,1.1,33.1c0.4,6.2-1.1,12.4-4.3,18c-26.5,49.6-52.9,99.4-79.4,149
				c-15.6,29.3-31.3,58.8-46.9,88.1c-2.1,3.9-4.1,8-5.7,12.3c-2.1,6.1-0.5,10.6,8.3,13.6c6.7,2,13.7,3.4,20.8,4.4
				c6.7,0.8,13.5,1.1,20.2,1c6.6,0.2,13.1,0.8,19.7,2c2,0.3,3.9,0.5,5.9,0.3c9.4-0.8,18.6-0.5,28.1-0.5c46.5-0.2,93.1-0.3,139.4-0.2
				c7.3,0,14.4-1.1,21.7-1c4.8,0.2,9.6,1,14.4,1c9.2,0,18.5-0.5,27.5-1.5c6.9-0.5,13.9-0.7,20.8-0.3c12.4,0,24.9-0.7,37.1-2
				c7.6-0.5,14.9-3.3,20.8-7.9c4.8-4.1,5.1-6.9,1.6-12.1C595,781.8,593.8,778.3,591.7,774.6z"/>
			<path class="st0" d="M488.3,422.6c-1.2-2.8-0.7-5.7-0.5-8.5c0-1.1,1.2-1.6,2-2.5c2.8-2.1,5.9-4.1,9.1-5.9
				c26.1-18,53.1-34.9,79.4-52.6c2-1.3,3.9-2.8,5.5-4.4c1.6-1.5,2-3.9,0.7-5.7c-1.2-1.8-3.6-2.8-5.9-2.3c-1.8,0.5-3.4,1.1-4.6,2.3
				c-14.4,9.5-28.6,18.8-43,28.3c-12.4,8.2-24.9,16.5-37.3,24.7c-1.6,1.1-3.4,2.1-5,3.1c-1.8-0.8-1.4-2-1.4-2.9
				c0-4.9,0-9.8-0.2-14.7c-0.2-2.1,0.9-4.1,2.7-5.4c2.3-1.6,4.4-3.4,6.7-4.9c30.5-21.3,61.1-42.6,91.5-63.9
				c12.8-9,25.6-18.2,38.7-26.9c13.3-9,26.5-18,39.4-27.4c7.8-5.6,15.6-11.1,23.4-16.7c1.2-0.8,2.7-1.6,4.1-2.6
				c0.9,1.3,1.1,2.9,0.5,4.4c-1.1,5.4-0.7,11,0.7,16.4c0.9,2.5-0.2,5.1-2.7,6.4c-17.9,12.1-35.9,24.2-53.8,36.5
				c-9.4,6.4-18.5,12.9-27.7,19.3c-1.2,0.8-2.5,2-3.6,2.9c-2.7,2-4.1,5.1-3.7,8.4c0.2,4.7-0.4,9.5,0,14.2c0.4,3.1-1.2,6.2-4.3,7.9
				c-5.1,3.3-10.3,6.7-15.4,10.2c-23.3,15.4-46.7,30.8-70,46.3c-7.3,4.7-14.4,9.5-21.7,14.2C491.2,422.1,489.7,422.6,488.3,422.6z"
				/>
			<path class="st0" d="M1013.8,594.7c0.9,7.7,0.9,15.4,0,22.9c-11.5,0.5-23.1,1.3-33.2-5.4c-8-4.9-12.6-13.3-12.4-22.1
				c-0.2-23.9-0.2-48-0.2-71.9c0.2-1.8,0-3.6-0.5-5.4c-4.1-1-8.3,0.2-12.8-0.8c-0.5-6.1-0.2-12-0.2-17.9c4.4-1.3,8.9,0,13.3-1.1
				c0.5-12.3,0-24.7,0.4-36.8c3.4-1.1,18.5-1.5,26.1-0.7c1.4,1.3,0.9,3.1,0.9,4.6c0,9.2,0,18.5,0,27.7c-0.2,1.8,0,3.6,0.5,5.2
				c5.9,1,11.9-0.2,17.9,0.7c1.1,3.1,1.4,11.5,0.5,18.2c-6,1-12.3-0.2-18.1,0.5c-0.9,1.5-1.1,3.1-0.9,4.7c0,22.3,0,44.7,0,67
				c0,0.8,0,1.8,0,2.6c0.2,3.6,3,6.4,6.9,6.9C1006,594.4,1009.9,594.7,1013.8,594.7z"/>
			<path class="st0" d="M257.8,118c-6,8.8-9.2,19.2-9.1,29.6c0.4,10.2,3.9,20,10.3,28.3c-1.1,1.6-2.8,1.5-4.3,1.8
				c-9.2,1.8-16.7,7.7-20.4,15.7c-0.9,1.5-0.7,3.3,0.5,4.6c2.7,3.4,5.1,6.9,7.8,10.3c1.2,1.5,1.8,3.1,1.8,4.9
				c-0.2,5.9-0.2,12-0.4,17.9c0,0.7,0,1.1-0.2,1.8c-0.7,4.3-3.9,6.4-8.3,4.7c-3.4-1.3-6.7-2.8-9.9-4.6
				c-11.9-6.2-21.5-15.6-28.1-26.5c-12.1-21.1-10.8-41.9,3.9-61.6c11.9-15.7,29.3-23.7,49.4-27.2C253.2,117,255.7,117.2,257.8,118z"
				/>
			<path class="st0" d="M364.9,153.2c0,0.3,0,0.7,0.2,1c4.3,7.5,5.3,16.4,3.2,24.7c-1.2,5.6-2.7,11.1-5.7,16c-0.7,1-1.2,2.1-2,3.1
				c-3.7,5.7-8.9,8.7-16.5,7.7c-8.2-1.1-16.3-2.3-23.3-6.9c-1.2-0.8-2.8-1.5-3.4-3.1c0.7-1.5,2.3-1.5,3.7-1.8
				c13.3-3.9,24.7-12.3,31.6-23.6c5.3-8.5,7.8-18.3,6.9-28.2c-0.7-8.4-3.6-16.4-8.3-23.4c0.5-2,2.3-2.6,3.7-3.4
				c11-5.6,22.2-11.1,33-16.7c2.8-1.5,5.1-1.8,7.8,0.3c3.4,2.6,7.3,4.9,10.8,7.5c3.6,2.5,5.3,2.6,9.2,0.5c5.5-2.9,10.8-5.9,16.3-8.8
				c3.2-1.8,3.7-1.8,6.4,0.3c3.2,2.5,6.6,4.6,10.1,6.6c-0.5,1.3-1.6,2.3-2.8,2.8c-25,13.8-50.1,27.7-75.1,41.4
				C368.8,150.4,366.3,151.2,364.9,153.2z"/>
			<path class="st0" d="M337.5,215.3c1.1,1.6,0,2.9-0.7,4.3c-8.5,13.6-21.5,24.6-36.9,31c-5.3,2.1-11,3.3-16.9,3.4
				c-5,0.2-9.9,0-14.9,0c-5.5,0.3-10.5-3.4-11.4-8.5c-0.9-3.9-2.1-7.9-3-11.6c-1.4-5.6-0.4-7,5.7-8.5c9.1-2.1,17.4-5.4,24.3-11.3
				c4.4-4.1,7.8-9.2,9.8-14.7c1.2-3.1,1.8-3.4,5.1-3.1c2.5,0,4.8,1,6.4,2.6c8,8.7,19.2,14.4,31.4,16
				C336.8,214.9,337.2,215.1,337.5,215.3z"/>
			<path class="st2" d="M488.8,443.6c-0.2-0.3-0.4-0.5-0.4-0.7c-0.9-7-0.9-7,5.3-11c28.1-17.9,55.6-36.2,83.3-54.5
				c9.2-6.2,18.5-12.6,28.1-18.2c6.6-3.9,8.7-9.2,8.9-15.7c0.2-3.9,0.4-7.7,0.2-11.6c-0.2-3.3,1.6-6.4,4.6-8.2
				c25.4-16.9,50.6-33.9,75.8-51.1c1.6-1,3-2.1,4.6-3.3c2.8,1.6,3.4,4.4,5.1,6.4c-0.9,2-2.7,3.8-4.8,4.7
				c-22.2,15.2-44.6,30.1-66.4,45.5c-9.9,7-9.1,5.7-8,17.7c0.2,3.9,0.5,7.7,1.2,11.5c0.5,2-1.2,2.9-2.7,3.8
				c-6.9,4.4-13.9,8.7-20.8,13.1c-29.3,18.5-58.6,36.8-87.9,55.4c-8.2,5.1-16.2,10.3-24.3,15.4C490.3,443.6,489.6,443.7,488.8,443.6
				z"/>
			<path class="st0" d="M669.6,145.3c0.4,0,0.9,0,1.2,0.2c21.5,14.9,43,29.8,64.5,44.7c0.9,0.5,1.2,1.5,1.2,2.3
				c-9.1,2.1-16.9,6.7-24,12.3c-2.3-1-4.6-2.5-6.4-4.1c-11.5-8.7-23.1-17.5-34.8-26.2c-2.7-1.6-4.3-4.6-3.9-7.5
				c0.5-6.6,0.7-13.1,1.2-19.5C668.4,146.5,668.7,145.7,669.6,145.3z"/>
			<path class="st0" d="M377,288.1c-11.4,1-23.4-8-23.8-21.1c-0.4-12,10.8-22.8,23.4-22.8c13.1-0.3,24.2,9.3,24.3,21.5
				c0,0.3,0,0.5,0,0.8C401.1,277.3,390.3,289,377,288.1z"/>
			<path class="st0" d="M533.4,50.8c3.7,1.3,66.4,44.7,70.3,48.6c-0.2,0.8-0.9,0.8-1.4,0.8c-7.3,0.2-14.6,0-21.7-0.7
				c-1.2-0.2-2.5-0.7-3.4-1.5c-13.5-10.3-27.3-20.3-41.6-29.8c-2.1-1.1-3.2-3.3-3-5.6c0.2-2.9,0-5.9,0-8.8
				C532.9,52.6,532.7,51.6,533.4,50.8z"/>
			<path class="st0" d="M353.5,530.5c-0.9-8.2,9.1-16.2,16.7-15.9c5.1,0.3,10.3,0.3,14.6,3.8c5.1,4.3,7.6,9.5,6.2,15.9
				c-1.2,6.4-6.6,11.3-13.3,12.6c-7.1,2-14.9-0.2-19.7-5.6C354.8,538.6,353.2,534.6,353.5,530.5z"/>
			<path class="st0" d="M377,386.2c4.3-0.7,8.7,1,11.5,3.9c5.5,4.7,6,12.4,1.6,17.9c-6.2,8-21.5,10.2-29.3-0.5
				c-6.2-8.4,0.4-20.1,11.7-21.3C373.9,386.1,375.5,386.1,377,386.2z"/>
			<path class="st0" d="M441.1,295.8c0.2,2.8-0.7,5.6-2.5,8c-5.1,7-16.9,6.2-21.8,0.3c-3.9-4.6-4.6-10.8-1.8-15.9
				c2.7-4.6,8.2-7.2,13.9-6.2c6,0.7,11,5.1,12.1,10.6C440.9,293.7,440.9,294.7,441.1,295.8z"/>
			<path class="st0" d="M345.9,296.7c0.5,4.6-2.5,8.4-6.9,11.3c-5.9,3.8-13.9,2.3-17.9-3.1c-0.2-0.2-0.2-0.3-0.4-0.5
				c-3.7-5.1-3.6-11.8,0.5-16.7c3.7-4.6,10.3-6.2,16-4.1C342.5,285.4,345.9,290.3,345.9,296.7z"/>
			<path class="st0" d="M460.3,588.2c0.5,7.2-6.6,12.6-13.7,12.6c-8.2,0.2-14.7-7-14.9-13.4c0-7.4,7.3-12.6,14.9-12.6
				C454.2,574.6,460.4,580.8,460.3,588.2z"/>
			<path class="st0" d="M380.7,208.4c5.5-0.5,8.9,2.1,10.8,6.6c2,3.9,0.9,8.5-2.5,11.5c-3,3.3-8,4.4-12.4,2.6
				c-7.6-2.8-9.6-9.2-6.7-15.4C371.8,209.4,375.7,207.9,380.7,208.4z"/>
			<path class="st0" d="M410.7,459.3c2.7-0.3,5.5,0.5,7.6,2c4.1,3.1,3.7,7,2.5,11c-0.9,3.8-4.4,6.6-8.5,6.7
				c-3.6,0.7-7.1-0.3-9.8-2.6c-4.3-3.8-4.4-10-0.4-14.1c2-1.8,4.4-2.9,7.1-3.1C409.8,459.3,410.5,459.3,410.7,459.3z"/>
			<path class="st2" d="M362.8,605.9c3.7-0.3,7.1,2.1,7.5,5.6c0,0.3,0,0.7,0,0.8c0,3.8-3.2,6.9-7.3,7c-0.2,0-0.2,0-0.4,0
				c-3.6,0.3-6.7-2.1-7.1-5.6c0-0.3,0-0.8,0-1.1C355.5,609,358.7,606,362.8,605.9L362.8,605.9z"/>
			<path class="st0" d="M585.1,787.3c-0.2-2.5-0.9-5.1-2-7.4c-3.6-6.7-6.9-13.4-11-19.8c-9.9-16-20.2-31.9-30.4-47.7
				c-13.5-21-27-41.9-40.5-62.9c-1.6-2.5-3.7-4.6-6.4-5.9c-7.8-4.3-16.7-6.6-25.7-7c-11.9-0.5-22.6,2.6-32.9,7.5
				c-10.7,4.9-22.4,7.9-34.3,8.4c-4.8,0.3-9.2-1-13.9-1.8c-7.8-1.1-15.4-3.3-22.6-6.2c-6.2-2.9-12.4-5.6-18.8-8.2
				c-8.7-3.6-18.3-5.4-27.9-5.2c-3.7-0.2-7.5,0.2-10.8,1.1c-5.3,1.6-9.9,4.6-12.1,9.5c-0.9,2-1.8,4.1-2.8,6.1
				c-7.3,13.9-14.4,28-21.7,41.9c-13.1,25.7-25.7,51.8-39.8,77c-1.2,2.5-2.7,4.7-3.9,7.2c-2.1,4.1-3.9,8.5-5,12.9
				c-1.6,5.6,0.2,8.4,6.2,10.3c1.2,0.3,2.5,0.7,3.7,1c8,1.5,16,2.1,24,2c46.7-0.5,93.2,0.3,139.9-0.7c19.2-0.5,38.4-0.2,57.7-0.2
				c38.5-0.2,77.1,0.2,115.8-0.8c1.6,0,3.2,0,4.8-0.2C581.4,797.8,585.4,793.5,585.1,787.3z M296.5,675.5c0-4.3,3.7-7.9,8.5-8
				c4.3-0.2,7.8,2.8,8,6.7c0,0.2,0,0.3,0,0.5c0.5,4.4-4.8,8-8.5,8C299.7,682.5,296.5,679.7,296.5,675.5z M318.7,770.1
				c-9.2,0.3-17-6.6-17.4-15.1c0-0.3,0-0.7,0-1c0.9-11.8,8.2-17.9,19-18c9.8-0.2,17.8,6.9,17.9,15.9c0,0.2,0,0.3,0,0.5
				C338.1,761,330.1,770.3,318.7,770.1z M380.2,701.7c-9.2,1-18.1-8-18.1-16.5c0.2-7.9,8-17.7,18.1-17.4c9.4,0.3,18.3,5.6,18.6,17.4
				C399.2,693.8,390.3,702.7,380.2,701.7z M407,732.1c0,5.1-3.6,8.7-8.7,8.7c-4.8,0-8.7-3.4-8.9-7.9c0-0.2,0-0.5,0-0.7
				c0-5.1,3.9-8.4,9.4-8.5c4.4,0,8.2,3.1,8.2,7.2C407,731.3,407,731.8,407,732.1z M442.1,783.4c-8.7,0.2-15.8-6.2-16-14.2
				c0-0.2,0-0.3,0-0.5c0.2-9.2,7.3-12.8,16-13.4c7.8-0.7,16,7,15.3,14.1C458.1,775.5,452.4,783.4,442.1,783.4z M499,688.2
				c0.5,8.5-8.9,17.7-19.7,15.7c-13-2.5-15.8-16-9.4-23.4c3.4-3.9,7.3-6.7,13.3-6.9c8.3-0.2,15.3,5.9,15.6,13.6
				C499,687.6,499,687.9,499,688.2z M528.8,784.2c-8-0.2-14.2-6.4-14-13.6c0.2-7.7,6.9-13.8,15.3-13.8c6.9-0.5,14.4,5.1,14.4,13.8
				C543.9,778.2,537.1,784.2,528.8,784.2z"/>
			<path class="st3" d="M996,794.2c-1.4-2.8-1.8-5.9-0.9-8.7c0.2-0.7,0.2-1.5,0-2.1c-1.6-4.9-0.7-9.8-0.4-14.6
				c0.4-2.8,0.2-5.6-0.5-8.4c-1.1-3.3-1.8-6.6-0.2-10c1.6-3.3,1.2-3.4-2.3-5.7c0.5-4.3,0.9-4.4-0.5-6.2c-3-3.6-3-7.7-3.7-11.8
				c-0.4-2.8-0.5-5.2-3.6-6.7c-0.5-0.3-1.1-1-1.1-1.3c0.2-3.4-1.8-5.7-3.7-8.4c-0.5-0.7-0.4-2-0.5-3.1c-0.2-1-0.4-2.1-1.6-2.5
				c-1.2-0.5-1.2-1.6-1.8-2.5c-1.4-2.9-3.2-6.2-6-7.9c-4.3-2.5-8.9-4.7-14.4-4.1c-2.8,0.3-5.3,0.5-7.6,2.3c-1.8,1.5-3.7,2.3-6,2.6
				c-0.2,0-0.4,0.3-0.7,0.5c-0.2,0.7,1.1,1.3,0,2.5c-1.6,1-4.4,0.3-6.2,2.1c0,0.5-0.2,0.8-0.2,1.3c0.4,2.9-0.7,4.9-3.9,5.6
				c-1.4,0.3-2.5,1.3-3,2.5c-1.8,2.5-2.7,5.4-4.1,7.9c-2.8,4.7-7.5,8-10.3,12.8c-2.3,3.9-5.3,7.4-6.7,11.8c-0.5,1.6-1.1,3.8-2.3,4.9
				c-2.8,2.3-3.2,5.2-3.7,8.4c-0.5,2.5-0.2,5.1-1.2,7.4c-2.1,0.5-3.4,0-3.4-2c0-2.5,0.2-4.7,0.5-7c0.9-6.1,0.9-12.1,1.6-18.2
				c0-2.8,0.7-5.6,2.1-8c0.4-0.7,0.5-1.3,0.7-2c-2.7-4.1-2.5-4.1-2-9.2c0.2-2.5,1.6-4.7,1.4-7.4c-0.4-7.7-1.1-15.4,1.6-22.9
				c0.9-2.3,2.1-4.6,2.8-6.7c-1.1-1.1-3-1.1-3.2-2.3c-0.4-3.4-3.2-6.6-2.1-10.3c0.7-2.8,0.4-5.6-1.2-8c-0.9-1.5-1.1-3.1-0.9-4.7
				c0.2-1.8,0.4-3.6,0.7-5.2c0.5-1.8-0.5-3.6-2.3-4.4c-1.4-0.7-2.7-1.8-3-3.3c-1.1-3.6-4.1-5.6-6.6-7.9c-5.9,2-10.5,5.6-16,6.9
				c-0.2,1,0.2,2,0.7,2.8c1.6,3.6,4.8,6.9,2.5,11.1c0,0.2,0,0.3,0,0.5c1.2,3.9-0.9,8.4,2,12c0.2,0.3,0.2,0.5,0.2,0.8
				c-0.9,2.8,1.1,5.7-1.1,8.5c-0.4,0.7-0.4,1.5,0,2.1c1.4,3.6,2,7.4,2,11.3c0.2,3.4,0.2,6.9,0,10.2c-0.7,4.1-0.5,8.4,0.4,12.4
				c1.1,3.3,0.7,6.9-0.7,10c-1.2,2.5-1.4,5.2-0.4,7.9c0.7,1.5,0.7,3.3,0,4.7c-1.4,3.1-0.9,6.1-0.7,9.2c0,0.8,0.5,1.6,0.2,2.6
				c-1.1,3.8-3.2,7.5-1.4,11.6c-1.4,5.1-0.5,10.3-0.9,15.6c0.2,1.8,0,3.6-0.2,5.4c-2.5,8.2-0.2,16.5-1.6,24.7c0,0.2,0,0.3,0,0.5
				c2.1,2.5,1.1,5.6,2,8c0.9,2.5,0.2,5.1,1.6,7.4c1.8,2.9,3.2,6.2,4.6,9.3c0.7,1.5,2.1,2.6,3.9,2.9c2.8,1,6,1.1,9.2,2
				c0.9,4.1,3,7.4,7.8,8.4c5.7,4.3,12.4,5.4,19.4,6.2c2.3,0.2,4.4,0.3,6,2c0.9,1,2.3,1.1,3.6,0.5c3.2-1.6,6.2-2,9.1,0
				c2.5-1.8,4.8-3.4,6.9-4.9c2.5,0.8,3.4,2.6,5,3.8c1.6-0.2,1.8-2.1,3.6-2.5c1.1,0,1.6,1.6,3.2,1.5c0.9-1.5,1.8-3.1,2.5-4.7
				c4.6-0.5,7.6-3.9,11.5-5.7c3-1.1,5.3-3.4,6.7-6.1c1.1-1.8,2.5-3.6,4.1-4.9c1.6-1.1,3-2.5,4.1-4.1c-1.2-1.5-0.9-3.4,0.5-4.7
				c0.4-0.5,0.7-1,0.5-1.6c-0.4-2.6,1.4-4.1,3-5.9c1.1-1.1,2-2.5,3-3.4c1.4-1.1,2-2.8,1.4-4.4C992.5,799.4,993.4,796.2,996,794.2z
				 M972.4,785.2c-0.4,1.3-0.5,2.6-0.4,3.9c0.4,3.8-1.4,6.9-2.7,10.2c-1.4,4.4-4.6,7.7-7.6,11c-2,2.5-3.6,4.9-4.8,7.7
				c-2.7,1.1-5.5,0.2-8.2,0.8c-1.4,0.8,0.5,2.6-1.1,3.6c-1.1,0.7-2.3,1-3.7,1c-1.1,0-2.1,0.5-3,1.1c-4.4,3.1-9.4,2.5-14.4,2.3
				c-1.2,0-2.1-1-2.1-2.1c-0.2-1-0.2-2.1-0.4-3.1c-3.2-2.1-6.4-3.3-10.5-2.1c-0.7,0.3-1.6,0.3-2.3,0c-3.4-2-7.3-2.5-10.8-3.6
				c1.4-2.8,4.1-3.9,6.4-5.7c-1.8-3.1-1.8-6.7,0.2-9.8c0.5-1.3,0.9-2.9,0.7-4.4c0.2-2.3,0-4.6,2.1-6.6c1.2-1.3,1.4-3.6,1.8-5.4
				c0.5-3.3,2-6.2,4.4-8.8c1.6-1.5,2.5-3.6,2.3-5.7c-0.2-1.5,0.2-2.9,1.2-4.3c2.5-3.6,4.3-7.7,5-12c0.7-3.6,2.3-7.2,5-10
				c0.4-0.5,1.1-0.8,1.2-1.5c1.6-6.6,8.2-9.8,11.2-15.4c0.2-0.5,0.5-0.8,0.9-1c5.3-1.6,7.6-6.6,12.6-9.2c3,3.8,5.7,7.7,8.2,12
				c4.6,8.4,6.7,17.2,8.3,26.4c0.9,5.1,1.2,10.3,1.2,15.6C973.3,775.2,972.9,780.1,972.4,785.2z"/>
			<path class="st0" d="M702.3,210.8c-8.5-6.2-16.9-12.3-25.4-18.7c-5.9-4.1-11.4-8.4-16.5-12.9c-2.7-2.6-4.1-6.1-3.9-9.7
				c0.2-9.5,0.7-19,1.2-28.5c0.4-2.9-1.1-5.9-3.9-7.5c-10.1-6.7-19.9-13.8-29.7-20.6c-1.8-1.3-4.1-2-6.4-1.8
				c-12.1,0.3-24.2-1.1-36.2-1c-0.5,0-0.9,0-1.4,0c-3-0.2-6-1.3-8.3-3.1c-12.4-9.3-25.2-18.7-37.8-27.8c-1.2-1.1-2.8-2-4.6-2.1
				c-2.8,5.6-6.2,11-10.3,15.9c0.5,1.6,1.8,2.9,3.2,3.9c8.5,7.5,17,14.9,25.4,22.6c2.3,2.3,5.5,3.4,8.9,3.4
				c14-0.2,28.1,0.2,42.1,0.2c3,0,6,1,8.5,2.6c6.7,4.6,13.5,9.2,20.4,13.4c5.7,3.6,7.3,8.4,6,14.2c-1.4,6.7-2.1,13.6-3.6,20.3
				c-0.7,2.5,0.5,5.1,2.8,6.4c14.4,10.8,28.8,21.5,43.3,32.3c2.3,1.6,4.4,3.4,6.6,5.2c2.1,1.8,2.5,4.7,0.7,6.9c-2,2.3-4.3,2.6-7.3,1
				c-1.8-1-3.4-2.3-5-3.4c-10.5-8-21-15.9-31.3-23.9c-6.4-4.9-12.6-9.7-19-14.6c-3.2-2.5-4.8-5.2-3.7-9.3c2-7,3-14.2,4.8-21.5
				c0.7-2.9,0.2-5.1-2.7-6.9c-5.5-3.4-10.8-7-16-10.8c-2-1.5-4.4-2.3-7.1-2.3c-13.1,0-26.1-0.2-39.2,0.2c-7.1,0.3-14.2-2.3-18.8-7.4
				c-8.2-8.5-17.9-15.4-26.5-23.6c-0.5-0.3-1.1-0.8-1.6-1.1c-3.2,1.6-6.6,3.3-9.6,5.1c-3.2,1.8-7.3,2-10.5,4.4
				c1.1,2,2.7,3.4,4.6,4.7c8.2,6.6,16.5,12.9,24.7,19.5c9.6,7.7,19.4,15.2,29.1,22.9c10.1,8,20.4,16,30.5,24.1
				c9.8,7.7,19.5,15.6,29.3,23.3c10.7,8.4,21.3,16.9,32,25.2c5.3,4.3,10.7,8.5,16.2,12.8c3.2,2.5,3.9,2.5,7.1,0
				c12.8-9.2,25.6-18.2,38.2-27.4c0.9-0.5,1.6-1.3,1.8-2.3C703.7,212,703,211.3,702.3,210.8z M596.5,163.8c-5-0.3-8.7-4.1-8.5-8.7
				c0-5.1,3.6-8.4,8.5-8.4c5.3,0,9.1,3.8,9.1,9C606.2,159.9,600.7,164,596.5,163.8z"/>
			<path class="st3" d="M817.7,742.9c0.5-3.4,0.5-7.5,3.2-10.2c3.2-3.1,3-5.9,1.4-9.3c-0.2-0.7-0.4-1.1-0.5-1.8
				c0.5-1.8,2.5-2.5,2.5-4.4c-5.7-0.5-5.9-5.9-8.9-9c-2.7,0.2-5.5,0.8-8,1.6c-4.8,1.5-10.3,0.3-13.7-3.3c-0.9-0.8-1.8-2.1-3.4-2.3
				c-0.4,0.5-0.7,1-1.1,1.6c-2-2.1-5-3.4-8.2-3.6c-2.3-0.3-4.8-0.8-7.1-1.3c-0.7-0.2-2-0.2-2.1-0.8c-0.9-2.3-3-2-4.8-2
				c-4.4,0-9.1-0.2-13.5-0.7c-4.6-0.8-9.4,0-13.5,2.1c-2,1-4.1,1.8-6.2,2.6c-2,1.1-4.4,1.5-6.7,1c-2.7,4.4-6,8.4-9.8,12
				c-5,4.7-5.7,10.8-7.5,16.5c1.1,3.1-0.7,5.7-2.3,8.4c-0.7,1.1-1.2,2.5-1.4,3.8c-0.2,3.4-1.8,6.6-4.3,9c0.7,1.5,1.2,2.8,0.4,4.1
				c-1.4,2-2.1,4.4-4.3,5.9c-1.2,0.8-2,2-2,3.4c0,2.8-0.5,5.6,1.1,8.2c-2.7,2.3-3.9,5.6-3.6,9c0.2,8.2-2.3,15.9-3.2,23.7
				c0,0.7-0.2,1.1-0.5,1.6c-1.4,2-0.9,3.8,0,5.9c0.9,2.6,2.1,5.4,0,8c-0.5,0.7,0,1.8,0.2,2.6c1.1,4.9,3.9,9.3,8.2,12.3
				c3.7,2.6,7.6,4.9,11.4,7.5c3.6,2.5,7.8,3.6,11.9,0.2c1.1-0.7,2.3-1.1,3.6-1.1c2.8-0.5,5.5-2,7.1-4.1c4.6-5.2,9.6-10.2,16.2-13.1
				c1.6-0.5,2.7-1.6,3.2-3.1c0.9-2.3,2.7-4.1,4.8-5.4c1.4-1,2.8-2,3.7-3.4c2-2.9,4.4-5.4,7.5-7.5c2.1-1.8,4.1-3.8,5.5-6.1
				c0.7-1.1,1.4-2.6,2.5-3.3c2.8-1.5,3.6-4.1,4.4-6.6c1.6-3.9,3.7-7.5,6.6-10.8c2.5,5.2,2.5,6.2,1.1,12.8c-0.7,2.9-1.8,5.7-1.4,8.8
				c1.2,11.1,2.5,22.1,3.9,33.2c0,0.8,0.4,1.8,0.9,2.5c3,3.6,6.2,6.9,9.6,10c1.2-0.5,2.5-1.3,3.2-1c2.7,1.5,4.6-0.3,6.6-1.3
				c3.9-1.8,7.5-4.3,10.3-7.4c2.5-2.5,2.5-3.9,1.1-6.7c-0.9-1.6-2.8-1.3-4.1-2.3c1.6-2.3,1.4-5.2-0.4-7.4c-2-2.8-5-2.9-7.5-3.9
				c-1.2-4.4,1.6-8,1.8-11.5c-0.7-1.1-2.1-1.1-2-2.5c0.7-2.5,3-4.1,3.6-6.4c-0.2-1.5-1.8-1.6-2-2.8c0-1.1,1.6-2.1,1.1-3.3
				c-1.2-2.9-0.9-6.2,0.9-9c0.2-0.5,0.4-1.1,0.2-1.8c-0.4-2.1,0.7-4.4,2.7-5.6c-1.1-1.3-1.8-2.9-2.3-4.4c-0.4-0.8-0.4-1.8,0.2-2.6
				c2.5-3.9,2.3-8.4,2.1-12.4c-0.2-3.4-0.5-6.6,1.6-9.7C817.9,745.4,817.5,744.1,817.7,742.9z M792.5,736.4c-0.2,0.3-0.4,0.7-0.7,1
				c-2.7,3.1-3.9,6.7-5.3,10.3c-0.9,2.3-2.1,4.3-3.7,6.2c-6,7.4-12.3,14.6-18.3,21.9c-2,2.3-3.7,4.4-6.9,4.7
				c-0.7,1.6,0.4,2.9-0.7,5.1c-0.4,0.3-2.1,0.5-2.5,2.3c-0.4,2.3-2.3,3.4-4.4,4.3c-1.2,0.5-2.7,1.1-3,2.6c-0.7,2.6-3,3.6-5,5.2
				c-6.4,5.1-13.9,9.3-19.4,15.4c-1.1,1.1-2.8,0.5-4.3,1.6c-0.2,1.8-1.2,3.4-2.8,4.6c-1.6,0.8-2.8,0.5-3.4-1.1
				c-0.7-2.9-1.6-5.9,1.2-8.4c0.5-0.5,0.9-1.1,1.2-1.8c-0.5-1.8-1.8-3.6-1.4-5.2c0.2-2.5,0.7-4.7,1.4-7.2c0.9-2.3,1.4-4.7,1.6-7.4
				c0.4-3.4,1.1-6.7,2-10c0.2-1.8,1.1-3.4,2.3-4.7c0.5-0.3,1.1-1,1.1-1.5c-0.9-4.4,2.7-7.7,3.6-11.6c0.7-3.3,2-6.6,3.2-9.7
				c0.7-2,3.2-2.5,4.8-4.3c-0.4-0.7-0.7-1.5-1.2-2c-1.4-1.3-1.6-3.4-0.5-4.9c0.2-0.3,0.2-0.5,0.2-0.8c2.1-9.2,8.9-14.4,17.8-17.9
				c2.7-1.1,5.1-3.1,8.3-2.3c0.5,0.2,1.1,0,1.4,0.2c4.3,1.8,8.7,1.3,13.1,1.5c3.7,0,7.3,1.3,10.1,3.6c2.3,2.1,4.8,3.9,7.6,5.4
				C792.3,732,793.4,734.4,792.5,736.4z"/>
			<path class="st0" d="M801.6,527.1c-1.4-14.6-14.4-30.6-32.9-34.1c-10.3-2-20.6-2-30.2,2.8c-4.4,1.8-8.5,4.4-12.1,7.4
				c-1.2,1.1-2.8,2.1-4.6,2.5v-31.3c0-5.2,0-10.5,0-15.6s0.2-10.3-0.2-15.4c-5.5-1-22.7-0.8-26.5,0.2c-0.9,4.4-0.7,170.5,0.4,174.3
				c8.5,0.2,17,0.2,25.9,0c0.9-4.1,0-7.9,0.7-12.1c3.2,2.3,5.7,4.4,8.5,6.1c12.6,8.2,28.9,10,43.3,4.6c15.3-5.2,24.7-15.9,27.2-31
				c1.6-9.5,1.6-19,1.8-28.5C803.2,547.1,802.6,537.1,801.6,527.1z M775.5,555.3L775.5,555.3c0,4.1,0,8.4,0,12.4
				c0,5.4-1.4,10.6-4.1,15.4c-3,6.2-9.6,10.5-17,10.6c-2.8,0.2-5.9,0-8.7,0.2c-4.4,0-8.5-1.5-12.1-4.1c-5.9-3.9-8.3-9.3-9.6-15.4
				c-2.7-12.4-2.7-25.2,0-37.7c0.5-3.1,1.6-6.1,3.2-8.8c4.1-7,12.1-11.3,20.6-11.1c3.6-0.2,7.1,0.2,10.5,1
				c5.9,1.1,10.8,4.9,13.1,10.2c2.5,4.9,3.7,10.2,3.9,15.6C775.3,547.4,775.5,551.3,775.5,555.3z"/>
			<path class="st0" d="M938,555.4c-0.2-6.4-0.2-12.8-0.9-19.2c-1.2-14.1-8.5-25.1-19.9-33.9c-3.2-2.5-6.7-4.6-10.7-6.1
				c-12.1-4.7-25.6-5.7-38.4-2.8c-20.2,4.6-33.4,16.7-38.9,35.4c-2.1,7.2-2.1,14.7-2.7,22.1c-0.5,9.3,0.2,18.7,2,28
				c1.6,10.5,7.1,20,15.6,27c14.2,11.8,31.3,15.4,49.9,12.4c11.2-1.8,21.5-7,29.1-14.7c6.7-6.4,11.2-14.2,13-22.9
				C937.8,572.3,938.5,563.8,938,555.4z M910.1,572.3c-1.8,10.5-7.6,18-19,20.8c-11,2.8-21.1,0.8-29.3-6.9c-2-2-3.4-4.4-4.3-6.9
				c-1.6-4.1-2.7-8.4-2.8-12.6c-0.2-4.6-1.1-9.2-0.7-13.8c0.5-5.4,0.4-11,1.8-16.4c4.1-16.5,20.4-21.3,33.2-19
				c11.5,2,20.1,10.6,21.1,21.3c0.2,1.6,0.7,3.3,0.7,4.9c0.2,3.9,0,8,0,12.1C911,561.3,910.8,566.7,910.1,572.3z"/>
			<path class="st0" d="M666.8,555.4c0-6.4-0.2-12.8-0.9-19.2c-1.4-14.6-8.9-25.9-21-34.7c-2.8-2.1-6-3.9-9.4-5.2
				c-12.4-4.9-26.3-5.7-39.2-2.6c-20.1,4.9-32.9,16.9-38,35.5c-2.1,7.2-2.1,14.7-2.7,22.1c-0.5,9.2,0.2,18.5,2,27.5
				c1.6,10.5,7.1,20,15.4,27.2c14.2,11.8,31.3,15.4,49.9,12.6c11.4-1.8,21.7-7.2,29.5-15.1c6.6-6.2,10.8-14.1,12.6-22.6
				C666.6,572.5,667.1,563.9,666.8,555.4z M638.9,572.5c-1.8,10.5-8.5,18.3-19.7,20.8c-10.7,2.3-20.6,0.3-28.6-7
				c-2-2-3.4-4.3-4.4-6.9c-1.8-3.9-2.7-8.2-2.8-12.6c-0.2-4.6-1.1-9.2-0.7-13.8c0.5-5.4,0.5-11,1.8-16.4
				c4.1-16.7,20.6-21.5,33.4-19.2c12.1,2.3,19.4,11,21,21.1c0.7,5.6,0.9,11,0.9,16.5C639.8,561,639.6,566.7,638.9,572.5z"/>
			<path class="st0" d="M750.8,298.8c-6.6,0-13.1-1.3-19.4-3.6c-5.5-2-10.8-4.7-15.4-8.4c-2.8-2.1-3.2-2.1-6.4-0.2
				c-0.4,0.3-0.9,0.5-1.2,0.8c-22.7,15.4-45.6,30.8-68.4,46c-2.7,1.5-4.1,4.3-3.7,7.2c0.4,5.2,0.7,10.3,1.2,15.6
				c0.4,4.9-1.8,7.9-5.9,10.3c-6.4,3.8-12.6,7.9-18.8,11.8c-16,10-32.1,20-48.1,30c-18.6,11.6-37.3,23.1-55.8,34.9
				c-6.4,4.1-12.4,8.5-18.6,12.6c-1.4,0.8-2.1,2.3-2.1,3.8c0.2,4.9,0.2,9.8,0.2,14.7c0,0.3,0,0.7,0,0.8c0.5,3.3,2.1,4.3,5.7,3.8
				c2.3-0.5,4.6-1.6,6.4-3.1c19-12.9,38.2-26,57.2-39.1c30.2-20.8,60.6-41.6,90.7-62.4c34.5-23.7,69.1-47.5,103.5-71.4
				c1.8-1,3.2-2.3,3.9-3.9C754,298.9,752.4,298.8,750.8,298.8z M651,352.3c-4.1,0.2-7.5-2.6-7.6-6.2c0-0.2,0-0.3,0-0.7
				c0-4.4,3.9-8.4,8.2-8.2c4.4,0.2,7.8,3.3,8.2,7.4C659.9,347.8,655.8,353,651,352.3z M717.4,306.5c-1.1,1-2.1,1.8-3.4,2.5l-43.2,28
				c-0.2,0.2-0.5,0.3-0.7,0.5c-2.8,1.6-5.7,1.5-7.5-0.3c-1.8-2.3-1.4-5.4,0.7-7.4c1.1-1,2.3-2,3.7-2.8c13.9-9,27.5-18.2,41.4-27.2
				c1.2-1,2.7-1.6,4.3-2c2.8-0.3,5.7,1.5,6,4.1c0,0.3,0,0.7,0,1C719,304.4,718.5,305.7,717.4,306.5z"/>
			<path class="st0" d="M754.2,200.4c-28.2-1.1-49.2,21.9-49.2,43.7c0,22.8,20.1,44.9,48.8,44.7c25.7-0.2,47.6-18.3,47.9-43.6
				C802.1,217.6,776.2,199.9,754.2,200.4z M785.1,245.1c-0.2,15.7-14.2,28.5-31.3,28.3c-17-0.2-30.9-13.1-30.7-28.8l0,0
				c0.2-18,15.8-28.5,31.8-28.2c16.7,0,30.2,12.6,30.2,28C785.1,244.6,785.1,244.9,785.1,245.1z"/>
			<path class="st0" d="M347.8,139.9c-2.3-14.7-11.4-24.9-26.3-30.8c-4.4-1.6-9.2-2.6-14-2.9c-5.3-0.5-10.7,0-15.8,1.1
				c-7.8,2-14.9,6.1-20.2,11.6c-10.7,10.6-14.2,23.1-10.1,37.2c4.8,16.9,21.3,29.6,42.6,29.8c3.7,0,7.5-0.5,11-1.3
				C334.9,179.9,351.6,162.4,347.8,139.9z M331.5,145.3c0.7,12.1-10.7,24.6-26.3,24.4c-14.4,0-26.1-10.6-26.1-23.9
				c0-0.2,0-0.2,0-0.3c0-14.2,12.1-24.1,26.6-24.4C320.1,120.6,332.4,132.7,331.5,145.3z"/>
			<path class="st0" d="M475.7,14.8c-25.7,0.5-46,18-46.2,42.6c-0.2,26.2,23.6,43.1,46.2,43.2c24.5,0.2,46.7-19.8,45.6-42.4
				C522.6,35.3,500,14.3,475.7,14.8z M475.3,87c-17.4,0.3-31.6-12.4-32-28.3c0-0.3,0-0.7,0-1c0-17,14.4-29.2,32.5-29.8
				c16-0.5,32.1,12.3,31.8,29.6C507.5,73.8,493.1,87,475.3,87z"/>
			<path class="st0" d="M419.9,69.8c-2-6.6-1.4-13.3-2-20.1c-7.6,3.6-15.1,7.7-22.2,12.1c-7.3,4.3-14.6,8.7-22,12.9
				c-7.1,4.3-14.4,8.4-21.5,12.8c-7.1,4.4-14.7,8.2-21.8,13.4c5,3.1,9.4,5.6,13.1,9.2c7.5-3.9,14.7-7.7,21.8-11.5
				c6.7-3.4,13.5-6.9,20.2-10.5c4.1-2.5,9.2-2.3,13.1,0.3c1.8,1,3.6,2.1,5.1,3.3c1.8,1.1,3.7,2.3,5.5,3.6c1.8,1.5,4.3,1.6,6.2,0.2
				c3-2,6.4-3.6,9.4-5.4c1.4-0.5,2.5-1.6,2.8-2.9C424.4,81.9,421.7,76.1,419.9,69.8z M417.3,78.2c-0.4,4.6-4.4,8.4-9.4,8.5
				c-5.5-0.2-9.9-4.4-9.8-9.7c0.2-4.6,4.3-8.4,9.4-8.2c0.2,0,0.4,0,0.5,0c5.3,0,9.4,3.9,9.4,8.8C417.5,77.9,417.3,78,417.3,78.2z"/>
			<path class="st4" d="M754,263.2c-12.8,0.7-20.6-10-20.4-18.3c0-10.2,8.7-18.5,19.7-18.7c12.1,0,20.8,7.7,21,18.3
				C774.2,255.7,763.6,263.9,754,263.2z"/>
			<path class="st1" d="M289.6,144.8c-0.5-8.8,8-14.7,15.8-14.7c8.5,0.2,15.3,6.6,15.4,14.2c0,8-6.9,14.7-15.8,15.1
				C297.9,159.6,288.9,153.2,289.6,144.8z"/>
			<path class="st4" d="M475.7,37.7c10.5-1.3,21,9.5,20.6,19.8c-0.2,11-9.9,19.8-21.8,19.7C462.6,77,453,68,453.1,57.1v-0.2
				c0.2-10.8,9.9-19.5,21.7-19.3C475.2,37.6,475.5,37.6,475.7,37.7z"/>
		</g>
	</g>
</g>
</svg>
