<?xml version="1.0" encoding="utf-8"?>
<!-- Generator: Adobe Illustrator 24.0.1, SVG Export Plug-In . SVG Version: 6.00 Build 0)  -->
<svg version="1.1" id="Camada_1" xmlns="http://www.w3.org/2000/svg" xmlns:xlink="http://www.w3.org/1999/xlink" x="0px" y="0px"
	 viewBox="0 0 1178.2 883.6" style="enable-background:new 0 0 1178.2 883.6;" xml:space="preserve">
<style type="text/css">
	.st0{clip-path:url(#SVGID_2_);}
	.st1{fill:#00871A;}
	.st2{fill:#6838AA;}
	.st3{fill:#01861B;}
	.st4{fill:#7135B0;}
	.st5{fill:#6938AA;}
</style>
<title>RobotLab - SVG</title>
<g>
	<defs>
		<rect id="SVGID_1_" x="-33.5" y="-1.1" width="1178.2" height="883.6"/>
	</defs>
	<clipPath id="SVGID_2_">
		<use xlink:href="#SVGID_1_"  style="overflow:visible;"/>
	</clipPath>
	<g class="st0">
		<path class="st1" d="M674.5,558.7c-0.6,0.5-1.4,0.8-2.2,0.7c-1.7,0-3.4,0.3-5.1,0.8c-1.3,0.6-2.8,0-3.4-1.3c0,0,0,0,0,0
			c-1.3-2.1-2.6-4.1-3.9-6.3c-7.9-13.4-15.7-26.8-23.6-40.2c-7-12-14.2-23.9-21-36c-4.9-8.6-10.3-16.9-15.4-25.4
			c-2.8-4.6-5.7-9.1-8.5-13.7c-1.3-2.1-2.3-4.4-3.4-6.5c-0.6-1.3-0.8-2.8-0.6-4.3c0-11.8,0-23.6,0-35.5c0-17.9,0.1-35.8,0-53.7
			c0-3.6,2.1-5.7,4.5-7.6c2.3-1.7,4.8-3.3,7.4-4.6c0.9-0.4,1.7-1,2.4-1.7c1.3-1.2,1.4-3.2,0.2-4.5c-0.1-0.1-0.2-0.2-0.3-0.3
			c-1-1-2.2-1.6-3.6-1.9c-1.8-0.4-3.6-0.6-5.4-0.6c-3.8,0.1-7.6,0.1-11.5,0c-9.9-0.3-19.8-0.8-29.7-0.6c-3.7,0.1-7.5,0-11.2,0.1
			c-2.8,0-5.6,0.5-8.4,0.6c-5.5,0.2-11,0.8-16.5,2c-1.3,0.2-2.5,0.7-3.4,1.6c-1.7,1.8-1.4,4.1,0.9,5.1c0.9,0.4,1.9,0.7,2.8,0.9
			c5.1,1.3,10.4,1.8,15.6,1.4c4.3-0.4,8.7-0.2,13.1-0.3c9.5-0.2,19.1-0.6,28.6-0.6c2.9,0,5.8-0.4,8.7-0.3c1.4,0,2.7,0.2,4,0.7
			c1.7,0.8,2.1,2,0.9,3.5c-1.6,2.2-4.1,3.7-6.8,4c-6.1,0.8-12.1,0.9-18.2,1.1c-15.2,0.5-30.4,0.3-45.5,0.6c-2.7,0-5.4,0.3-8.2,0.4
			c-4.7,0.2-9-2.2-11.3-6.3c-1.3-2.1-2.5-4.1-2.6-6.7c-0.1-2.5,0.8-4.9,2.3-6.8c2.6-3.5,6.5-5.7,10.8-6.3c6-1,12.1-1.6,18.2-1.6
			c10.6,0.1,21.3-0.7,31.9-0.6c18,0.1,36,0,54,0c5.2,0,9.3,2.3,11.3,7.1c2.3,5.8,1.3,10.2-3.4,14.2c-0.6,0.5-1.3,1-2,1.4
			c-3.6,2.1-3.7,2.1-4,6.3c-0.2,2.5-0.2,5.1,0.1,7.6c0.5,4.9,0.3,9.8,0.4,14.7c0.1,7.1-0.1,14.2,0.2,21.3
			c0.6,13.4,0.2,26.7,0.4,40.1c-0.1,1.2,0.2,2.4,0.8,3.3c3.9,5.3,7.1,11,10.5,16.6c9.5,15.5,18.9,31,28.3,46.6
			c10.3,16.9,20.6,33.9,30.8,50.8c2.9,4.8,5.9,9.6,8.7,14.5c2.3,4.1,2,4.6-2.5,5.3c-0.2,0-0.4,0.1-0.5,0.1c-2.5,0.5-4.2-0.2-5.6-2.6
			c-9.3-15.6-18.7-31.2-28.1-46.7c-12.2-20.2-24.5-40.4-36.7-60.6c-4.2-6.9-8.4-13.8-12.7-20.7c-0.7-1.2-1-2.5-0.8-3.9
			c0-13.3,0.2-26.6-0.1-39.8c-0.4-14-0.2-28-0.4-42c0.1-1.1-0.1-2.2-0.4-3.2c-0.6-1.9-2.3-3.2-4.2-3.4c-2.1-0.3-4.1,0.8-4.9,2.7
			c-0.6,1.2-0.9,2.6-0.8,4c0,5.6,0,11.3,0.1,16.9c0,9.2-0.2,18.4,0.1,27.5c0.4,12.6,0.2,25.3,0.5,37.9c0,3.2,0.9,6.3,2.6,9
			C607,446,615,459.3,623,472.6c10.4,17.2,20.8,34.4,31.1,51.6c6.4,10.7,12.9,21.3,19.3,32C673.9,556.9,674.6,557.6,674.5,558.7z"/>
		<path class="st2" d="M505.6,338c3.5-0.2,7-0.2,10.6-0.1c-1.6,7.2-0.3,14.2-0.2,21.3c0.3,10.1,0.8,20.2,1.3,30.2
			c0.5,10.3,1,20.7,1.5,31c0.2,2.8-0.4,5.6-1.6,8.1c-9.2,19.3-18.3,38.6-27.4,57.9c-10.1,21.4-20.3,42.9-30.4,64.3
			c-3.3,6.9-6.7,13.7-9.7,20.7c-2.1,4.9-3.8,10-5.1,15.2c-0.8,2.7-1.4,5.5-1.8,8.3c-0.2,1.4-0.2,2.9,0,4.3c0.4,3.7,2.4,7,5.5,9
			c3.1,2.1,6.5,3.6,10.2,4.5c8.4,2.3,17.1,3.4,25.9,3.3c26.8,0,53.6,0.1,80.4-0.2c23.5-0.3,46.9-0.2,70.3-0.5
			c10.5-0.1,21.1-0.1,31.6-0.4c6.3-0.2,12.7-0.8,18.7-3.3c5.4-2.3,10-5.7,12.9-10.8c3.7-6.3,3.6-13,1.4-19.8c-0.4-1.3-1.3-2.4-1.2-4
			c2.9-0.6,5.9-0.9,8.9-0.9c0.8,0,1.6,0.5,1.9,1.3c2.4,4.8,4.2,9.7,3.8,15.4c-0.4,6.6-3,12-7.2,17c-3.2,3.8-6.8,6.9-11.4,8.5
			c-3.4,1.2-7,2-10.6,2.5c-3,0.4-6,0.5-9,0.3c-3.1-0.1-6.2,0.1-9.2,0.5c-2.4,0.2-4.7,0.2-7.1,0.3c-16,0.9-32,0.6-48,0.4
			c-47.6-0.4-95.3-0.1-142.9-0.4c-3.6,0-7.2,0-10.8-0.9c-2.1-0.5-4.3-0.3-6.5-0.8c-12.1-3-19.7-12.9-20.6-25.2
			c-0.5-7.7,1.4-14.7,5-21.4c4.3-8.1,8.3-16.4,12.4-24.6c20-40.1,40.1-80.1,60.1-120.2c0.7-1.5,1.1-3.1,1.1-4.7
			c0.1-7.4-0.5-14.7-0.7-22.1c-0.3-9-0.7-18-1.1-26.9c-0.4-8.9-0.8-17.8-1.1-26.7c-0.1-2.4-0.4-4.9-0.4-7.3
			C505.1,340.1,505.2,339,505.6,338z"/>
		<path class="st2" d="M676.8,578.9c2.7-0.6,5.4-1,8.2-0.9c0.7,0,1.5,0.3,1.9,1c2.6,4.1,4.4,8.4,3.6,13.4c-0.6,3.7-2.7,6.3-5.7,8.3
			c-3.7,2.5-7.9,3.5-12.3,4.1c-1.2,0.1-2.4,0.2-3.5,0.2c-27.6,0.2-55.3,0.2-82.9,0.6c-23.5,0.3-47.1,0.3-70.6,0.6
			c-6.2,0.1-12.4,0.5-18.5,0.2c-9.1-0.4-18.2,0-27.2-1.5c-3.6-0.5-7.2-1.3-10.6-2.3c-0.8-0.2-1.5-0.5-2.3-0.8
			c-3.4-1.5-4.4-3.1-4.1-6.8c0.3-2.6,0.9-5.2,1.8-7.7c2.4-6.6,5.3-12.9,8.2-19.3c11.3-24.1,22.7-48.2,34-72.2
			c5.4-11.4,10.8-22.8,16.2-34.3c4.3-9,8.4-18.1,12.8-27.1c3.1-6.4,4.2-13.6,3.2-20.7c-0.1-0.7-0.2-1.4-0.2-2.2
			c-0.2-6-0.4-12-0.7-18c-0.4-8.3-0.7-16.5-1.1-24.8c-0.3-6.9-0.7-13.8-1.1-20.7c-0.1-2.2-0.4-4.3-0.5-6.5c-0.1-1.2-0.8-2.2-1.2-3.2
			c2-0.8,8.1-1.1,12-0.5c0.2,2.7,0.6,5.5,0.6,8.2c0.3,8.7,0.5,17.4,0.8,26.2c0.4,10.5,0.7,21.1,1,31.6c0.2,6.7,0.3,13.4,0.6,20.2
			c0.2,3.8-0.6,7.6-2.4,11c-14.9,30.3-29.8,60.7-44.7,91c-8.8,17.9-17.6,35.9-26.4,53.8c-1.2,2.4-2.3,4.9-3.2,7.5
			c-1.2,3.7-0.3,6.5,4.7,8.3c3.8,1.2,7.7,2.1,11.7,2.7c3.8,0.5,7.6,0.7,11.4,0.6c3.7,0.1,7.4,0.5,11.1,1.2c1.1,0.2,2.2,0.3,3.3,0.2
			c5.3-0.5,10.5-0.3,15.8-0.3c26.2-0.1,52.4-0.2,78.5-0.1c4.1,0,8.1-0.7,12.2-0.6c2.7,0.1,5.4,0.6,8.1,0.6c5.2,0,10.4-0.3,15.5-0.9
			c3.9-0.3,7.8-0.4,11.7-0.2c7,0,14-0.4,20.9-1.2c4.3-0.3,8.4-2,11.7-4.8c2.7-2.5,2.9-4.2,0.9-7.4
			C678.7,583.3,678,581.2,676.8,578.9z"/>
		<path class="st1" d="M618.6,364c-0.7-1.7-0.4-3.5-0.3-5.2c0-0.7,0.7-1,1.1-1.5c1.6-1.3,3.3-2.5,5.1-3.6
			c14.7-11,29.9-21.3,44.7-32.1c1.1-0.8,2.2-1.7,3.1-2.7c0.9-0.9,1.1-2.4,0.4-3.5c-0.7-1.1-2-1.7-3.3-1.4c-1,0.3-1.9,0.7-2.6,1.4
			c-8.1,5.8-16.1,11.5-24.2,17.3c-7,5-14,10.1-21,15.1c-0.9,0.7-1.9,1.3-2.8,1.9c-1-0.5-0.8-1.2-0.8-1.8c0-3,0-6-0.1-9
			c-0.1-1.3,0.5-2.5,1.5-3.3c1.3-1,2.5-2.1,3.8-3c17.2-13,34.4-26,51.5-39c7.2-5.5,14.4-11.1,21.8-16.4c7.5-5.5,14.9-11,22.2-16.7
			c4.4-3.4,8.8-6.8,13.2-10.2c0.7-0.5,1.5-1,2.3-1.6c0.5,0.8,0.6,1.8,0.3,2.7c-0.6,3.3-0.4,6.7,0.4,10c0.5,1.5-0.1,3.1-1.5,3.9
			c-10.1,7.4-20.2,14.8-30.3,22.3c-5.3,3.9-10.4,7.9-15.6,11.8c-0.7,0.5-1.4,1.2-2,1.8c-1.5,1.2-2.3,3.1-2.1,5.1
			c0.1,2.9-0.2,5.8,0,8.7c0.2,1.9-0.7,3.8-2.4,4.8c-2.9,2-5.8,4.1-8.7,6.2c-13.1,9.4-26.3,18.8-39.4,28.3c-4.1,2.9-8.1,5.8-12.2,8.7
			C620.2,363.7,619.4,364,618.6,364z"/>
		<path class="st1" d="M914.5,469.1c0.5,4.7,0.5,9.4,0,14c-6.5,0.3-13,0.8-18.7-3.3c-4.5-3-7.1-8.1-7-13.5
			c-0.1-14.6-0.1-29.3-0.1-43.9c0.1-1.1,0-2.2-0.3-3.3c-2.3-0.6-4.7,0.1-7.2-0.5c-0.3-3.7-0.1-7.3-0.1-10.9c2.5-0.8,5,0,7.5-0.7
			c0.3-7.5,0-15.1,0.2-22.5c1.9-0.7,10.4-0.9,14.7-0.4c0.8,0.8,0.5,1.9,0.5,2.8c0,5.6,0,11.3,0,16.9c-0.1,1.1,0,2.2,0.3,3.2
			c3.3,0.6,6.7-0.1,10.1,0.4c0.6,1.9,0.8,7,0.3,11.1c-3.4,0.6-6.9-0.1-10.2,0.3c-0.5,0.9-0.6,1.9-0.5,2.9c0,13.6,0,27.3,0,40.9
			c0,0.5,0,1.1,0,1.6c0.1,2.2,1.7,3.9,3.9,4.2C910.1,468.9,912.3,469.1,914.5,469.1z"/>
		<path class="st1" d="M488.8,178c-3.4,5.4-5.2,11.7-5.1,18.1c0.2,6.2,2.2,12.2,5.8,17.3c-0.6,1-1.6,0.9-2.4,1.1
			c-5.2,1.1-9.4,4.7-11.5,9.6c-0.5,0.9-0.4,2,0.3,2.8c1.5,2.1,2.9,4.2,4.4,6.3c0.7,0.9,1,1.9,1,3c-0.1,3.6-0.1,7.3-0.2,10.9
			c0,0.4,0,0.7-0.1,1.1c-0.4,2.6-2.2,3.9-4.7,2.9c-1.9-0.8-3.8-1.7-5.6-2.8c-6.7-3.8-12.1-9.5-15.8-16.2
			c-6.8-12.9-6.1-25.6,2.2-37.6c6.7-9.6,16.5-14.5,27.8-16.6C486.2,177.4,487.6,177.5,488.8,178z"/>
		<path class="st1" d="M549.1,199.5c0,0.2,0,0.4,0.1,0.6c2.4,4.6,3,10,1.8,15.1c-0.7,3.4-1.5,6.8-3.2,9.8c-0.4,0.6-0.7,1.3-1.1,1.9
			c-2.1,3.5-5,5.3-9.3,4.7c-4.6-0.7-9.2-1.4-13.1-4.2c-0.7-0.5-1.6-0.9-1.9-1.9c0.4-0.9,1.3-0.9,2.1-1.1c7.5-2.4,13.9-7.5,17.8-14.4
			c3-5.2,4.4-11.2,3.9-17.2c-0.4-5.1-2-10-4.7-14.3c0.3-1.2,1.3-1.6,2.1-2.1c6.2-3.4,12.5-6.8,18.6-10.2c1.6-0.9,2.9-1.1,4.4,0.2
			c1.9,1.6,4.1,3,6.1,4.6c2,1.5,3,1.6,5.2,0.3c3.1-1.8,6.1-3.6,9.2-5.4c1.8-1.1,2.1-1.1,3.6,0.2c1.8,1.5,3.7,2.8,5.7,4
			c-0.3,0.8-0.9,1.4-1.6,1.7c-14.1,8.4-28.2,16.9-42.3,25.3C551.3,197.8,549.9,198.3,549.1,199.5z"/>
		<path class="st1" d="M533.7,237.4c0.6,1,0,1.8-0.4,2.6c-4.8,8.3-12.1,15-20.8,18.9c-3,1.3-6.2,2-9.5,2.1c-2.8,0.1-5.6,0-8.4,0
			c-3.1,0.2-5.9-2.1-6.4-5.2c-0.5-2.4-1.2-4.8-1.7-7.1c-0.8-3.4-0.2-4.3,3.2-5.2c5.1-1.3,9.8-3.3,13.7-6.9c2.5-2.5,4.4-5.6,5.5-9
			c0.7-1.9,1-2.1,2.9-1.9c1.4,0,2.7,0.6,3.6,1.6c4.5,5.3,10.8,8.8,17.7,9.8C533.3,237.2,533.5,237.3,533.7,237.4z"/>
		<path class="st3" d="M618.9,376.8c-0.1-0.2-0.2-0.3-0.2-0.4c-0.5-4.3-0.5-4.3,3-6.7c15.8-10.9,31.3-22.1,46.9-33.3
			c5.2-3.8,10.4-7.7,15.8-11.1c3.7-2.4,4.9-5.6,5-9.6c0.1-2.4,0.2-4.7,0.1-7.1c-0.1-2,0.9-3.9,2.6-5c14.3-10.3,28.5-20.7,42.7-31.2
			c0.9-0.6,1.7-1.3,2.6-2c1.6,1,1.9,2.7,2.9,3.9c-0.5,1.2-1.5,2.3-2.7,2.9c-12.5,9.3-25.1,18.4-37.4,27.8c-5.6,4.3-5.1,3.5-4.5,10.8
			c0.1,2.4,0.3,4.7,0.7,7c0.3,1.2-0.7,1.8-1.5,2.3c-3.9,2.7-7.8,5.3-11.7,8c-16.5,11.3-33,22.5-49.5,33.8c-4.6,3.1-9.1,6.3-13.7,9.4
			C619.7,376.8,619.3,376.9,618.9,376.8z"/>
		<path class="st1" d="M720.7,194.7c0.2,0,0.5,0,0.7,0.1c12.1,9.1,24.2,18.2,36.3,27.3c0.5,0.3,0.7,0.9,0.7,1.4
			c-5.1,1.3-9.5,4.1-13.5,7.5c-1.3-0.6-2.6-1.5-3.6-2.5c-6.5-5.3-13-10.7-19.6-16c-1.5-1-2.4-2.8-2.2-4.6c0.3-4,0.4-8,0.7-11.9
			C720,195.4,720.2,194.9,720.7,194.7z"/>
		<path class="st1" d="M555.9,281.9c-6.4,0.6-13.2-4.9-13.4-12.9c-0.2-7.3,6.1-13.9,13.2-13.9c7.4-0.2,13.6,5.7,13.7,13.1
			c0,0.2,0,0.3,0,0.5C569.5,275.3,563.4,282.4,555.9,281.9z"/>
		<path class="st1" d="M644,137c2.1,0.8,37.4,27.3,39.6,29.7c-0.1,0.5-0.5,0.5-0.8,0.5c-4.1,0.1-8.2,0-12.2-0.4
			c-0.7-0.1-1.4-0.4-1.9-0.9c-7.6-6.3-15.4-12.4-23.4-18.2c-1.2-0.7-1.8-2-1.7-3.4c0.1-1.8,0-3.6,0-5.4
			C643.7,138.1,643.6,137.5,644,137z"/>
		<path class="st1" d="M542.7,429.9c-0.5-5,5.1-9.9,9.4-9.7c2.9,0.2,5.8,0.2,8.2,2.3c2.9,2.6,4.3,5.8,3.5,9.7
			c-0.7,3.9-3.7,6.9-7.5,7.7c-4,1.2-8.4-0.1-11.1-3.4C543.4,434.8,542.5,432.4,542.7,429.9z"/>
		<path class="st1" d="M555.9,341.8c2.4-0.4,4.9,0.6,6.5,2.4c3.1,2.9,3.4,7.6,0.9,10.9c-3.5,4.9-12.1,6.2-16.5-0.3
			c-3.5-5.1,0.2-12.3,6.6-13C554.2,341.7,555.1,341.7,555.9,341.8z"/>
		<path class="st1" d="M592,286.6c0.1,1.7-0.4,3.4-1.4,4.9c-2.9,4.3-9.5,3.8-12.3,0.2c-2.2-2.8-2.6-6.6-1-9.7
			c1.5-2.8,4.6-4.4,7.8-3.8c3.4,0.4,6.2,3.1,6.8,6.5C591.9,285.3,591.9,285.9,592,286.6z"/>
		<path class="st1" d="M538.4,287.1c0.3,2.8-1.4,5.1-3.9,6.9c-3.3,2.3-7.8,1.4-10.1-1.9c-0.1-0.1-0.1-0.2-0.2-0.3
			c-2.1-3.1-2-7.2,0.3-10.2c2.1-2.8,5.8-3.8,9-2.5C536.5,280.2,538.4,283.2,538.4,287.1z"/>
		<path class="st1" d="M602.8,465.1c0.3,4.4-3.7,7.7-7.7,7.7c-4.6,0.1-8.3-4.3-8.4-8.2c0-4.5,4.1-7.7,8.4-7.7
			C599.4,456.8,602.9,460.6,602.8,465.1z"/>
		<path class="st1" d="M558,233.2c3.1-0.3,5,1.3,6.1,4c1.1,2.4,0.5,5.2-1.4,7c-1.7,2-4.5,2.7-7,1.6c-4.3-1.7-5.4-5.6-3.8-9.4
			C553,233.8,555.2,232.9,558,233.2z"/>
		<path class="st1" d="M574.9,386.4c1.5-0.2,3.1,0.3,4.3,1.2c2.3,1.9,2.1,4.3,1.4,6.7c-0.5,2.3-2.5,4-4.8,4.1c-2,0.4-4-0.2-5.5-1.6
			c-2.4-2.3-2.5-6.1-0.2-8.6c1.1-1.1,2.5-1.8,4-1.9C574.4,386.4,574.8,386.4,574.9,386.4z"/>
		<path class="st3" d="M547.9,475.9c2.1-0.2,4,1.3,4.2,3.4c0,0.2,0,0.4,0,0.5c0,2.3-1.8,4.2-4.1,4.3c-0.1,0-0.1,0-0.2,0
			c-2,0.2-3.8-1.3-4-3.4c0-0.2,0-0.5,0-0.7C543.8,477.8,545.6,476,547.9,475.9C547.9,475.9,547.9,475.9,547.9,475.9z"/>
		<path class="st1" d="M673.1,586.7c-0.1-1.5-0.5-3.1-1.1-4.5c-2-4.1-3.9-8.2-6.2-12.1c-5.6-9.8-11.4-19.5-17.1-29.1
			c-7.6-12.8-15.2-25.6-22.8-38.4c-0.9-1.5-2.1-2.8-3.6-3.6c-4.4-2.6-9.4-4-14.5-4.3c-6.7-0.3-12.7,1.6-18.5,4.6
			c-6,3-12.6,4.8-19.3,5.1c-2.7,0.2-5.2-0.6-7.8-1.1c-4.4-0.7-8.7-2-12.7-3.8c-3.5-1.8-7-3.4-10.6-5c-4.9-2.2-10.3-3.3-15.7-3.2
			c-2.1-0.1-4.2,0.1-6.1,0.7c-3,1-5.6,2.8-6.8,5.8c-0.5,1.2-1,2.5-1.6,3.7c-4.1,8.5-8.1,17.1-12.2,25.6c-7.4,15.7-14.5,31.6-22.4,47
			c-0.7,1.5-1.5,2.9-2.2,4.4c-1.2,2.5-2.2,5.2-2.8,7.9c-0.9,3.4,0.1,5.1,3.5,6.3c0.7,0.2,1.4,0.4,2.1,0.6c4.5,0.9,9,1.3,13.5,1.2
			c26.3-0.3,52.5,0.2,78.8-0.4c10.8-0.3,21.6-0.1,32.5-0.1c21.7-0.1,43.4,0.1,65.2-0.5c0.9,0,1.8,0,2.7-0.1
			C671,593.1,673.3,590.5,673.1,586.7z M510.6,518.4c0-2.6,2.1-4.8,4.8-4.9c2.4-0.1,4.4,1.7,4.5,4.1c0,0.1,0,0.2,0,0.3
			c0.3,2.7-2.7,4.9-4.8,4.9C512.4,522.7,510.6,521,510.6,518.4z M523.1,576.2c-5.2,0.2-9.6-4-9.8-9.2c0-0.2,0-0.4,0-0.6
			c0.5-7.2,4.6-10.9,10.7-11c5.5-0.1,10,4.2,10.1,9.7c0,0.1,0,0.2,0,0.3C534,570.6,529.5,576.3,523.1,576.2z M557.7,534.4
			c-5.2,0.6-10.2-4.9-10.2-10.1c0.1-4.8,4.5-10.8,10.2-10.6c5.3,0.2,10.3,3.4,10.5,10.6C568.4,529.6,563.4,535,557.7,534.4z
			 M572.8,553c0,3.1-2,5.3-4.9,5.3c-2.7,0-4.9-2.1-5-4.8c0-0.1,0-0.3,0-0.4c0-3.1,2.2-5.1,5.3-5.2c2.5,0,4.6,1.9,4.6,4.4
			C572.8,552.5,572.8,552.8,572.8,553z M592.6,584.3c-4.9,0.1-8.9-3.8-9-8.7c0-0.1,0-0.2,0-0.3c0.1-5.6,4.1-7.8,9-8.2
			c4.4-0.4,9,4.3,8.6,8.6C601.6,579.5,598.4,584.3,592.6,584.3z M624.6,526.2c0.3,5.2-5,10.8-11.1,9.6c-7.3-1.5-8.9-9.8-5.3-14.3
			c1.9-2.4,4.1-4.1,7.5-4.2c4.7-0.1,8.6,3.6,8.8,8.3C624.6,525.8,624.6,526,624.6,526.2z M641.4,584.8c-4.5-0.1-8-3.9-7.9-8.3
			c0.1-4.7,3.9-8.4,8.6-8.4c3.9-0.3,8.1,3.1,8.1,8.4C649.9,581.1,646.1,584.8,641.4,584.8z"/>
		<path class="st4" d="M904.5,590.9c-0.8-1.7-1-3.6-0.5-5.3c0.1-0.4,0.1-0.9,0-1.3c-0.9-3-0.4-6-0.2-8.9c0.2-1.7,0.1-3.4-0.3-5.1
			c-0.6-2-1-4-0.1-6.1c0.9-2,0.7-2.1-1.3-3.5c0.3-2.6,0.5-2.7-0.3-3.8c-1.7-2.2-1.7-4.7-2.1-7.2c-0.2-1.7-0.3-3.2-2-4.1
			c-0.3-0.2-0.6-0.6-0.6-0.8c0.1-2.1-1-3.5-2.1-5.1c-0.3-0.4-0.2-1.2-0.3-1.9c-0.1-0.6-0.2-1.3-0.9-1.5c-0.7-0.3-0.7-1-1-1.5
			c-0.8-1.8-1.8-3.8-3.4-4.8c-2.4-1.5-5-2.9-8.1-2.5c-1.6,0.2-3,0.3-4.3,1.4c-1,0.9-2.1,1.4-3.4,1.6c-0.1,0-0.2,0.2-0.4,0.3
			c-0.1,0.4,0.6,0.8,0,1.5c-0.9,0.6-2.5,0.2-3.5,1.3c0,0.3-0.1,0.5-0.1,0.8c0.2,1.8-0.4,3-2.2,3.4c-0.8,0.2-1.4,0.8-1.7,1.5
			c-1,1.5-1.5,3.3-2.3,4.8c-1.6,2.9-4.2,4.9-5.8,7.8c-1.3,2.4-3,4.5-3.8,7.2c-0.3,1-0.6,2.3-1.3,3c-1.6,1.4-1.8,3.2-2.1,5.1
			c-0.3,1.5-0.1,3.1-0.7,4.5c-1.2,0.3-1.9,0-1.9-1.2c0-1.5,0.1-2.9,0.3-4.3c0.5-3.7,0.5-7.4,0.9-11.1c0-1.7,0.4-3.4,1.2-4.9
			c0.2-0.4,0.3-0.8,0.4-1.2c-1.5-2.5-1.4-2.5-1.1-5.6c0.1-1.5,0.9-2.9,0.8-4.5c-0.2-4.7-0.6-9.4,0.9-14c0.5-1.4,1.2-2.8,1.6-4.1
			c-0.6-0.7-1.7-0.7-1.8-1.4c-0.2-2.1-1.8-4-1.2-6.3c0.4-1.7,0.2-3.4-0.7-4.9c-0.5-0.9-0.6-1.9-0.5-2.9c0.1-1.1,0.2-2.2,0.4-3.2
			c0.3-1.1-0.3-2.2-1.3-2.7c-0.8-0.4-1.5-1.1-1.7-2c-0.6-2.2-2.3-3.4-3.7-4.8c-3.3,1.2-5.9,3.4-9,4.2c-0.1,0.6,0.1,1.2,0.4,1.7
			c0.9,2.2,2.7,4.2,1.4,6.8c0,0.1,0,0.2,0,0.3c0.7,2.4-0.5,5.1,1.1,7.3c0.1,0.2,0.1,0.3,0.1,0.5c-0.5,1.7,0.6,3.5-0.6,5.2
			c-0.2,0.4-0.2,0.9,0,1.3c0.8,2.2,1.1,4.5,1.1,6.9c0.1,2.1,0.1,4.2,0,6.2c-0.4,2.5-0.3,5.1,0.2,7.6c0.6,2,0.4,4.2-0.4,6.1
			c-0.7,1.5-0.8,3.2-0.2,4.8c0.4,0.9,0.4,2,0,2.9c-0.8,1.9-0.5,3.7-0.4,5.6c0,0.5,0.3,1,0.1,1.6c-0.6,2.3-1.8,4.6-0.8,7.1
			c-0.8,3.1-0.3,6.3-0.5,9.5c0.1,1.1,0,2.2-0.1,3.3c-1.4,5-0.1,10.1-0.9,15.1c0,0.1,0,0.2,0,0.3c1.2,1.5,0.6,3.4,1.1,4.9
			c0.5,1.5,0.1,3.1,0.9,4.5c1,1.8,1.8,3.8,2.6,5.7c0.4,0.9,1.2,1.6,2.2,1.8c1.6,0.6,3.4,0.7,5.2,1.2c0.5,2.5,1.7,4.5,4.4,5.1
			c3.2,2.6,7,3.3,10.9,3.8c1.3,0.1,2.5,0.2,3.4,1.2c0.5,0.6,1.3,0.7,2,0.3c1.8-1,3.5-1.2,5.1,0c1.4-1.1,2.7-2.1,3.9-3
			c1.4,0.5,1.9,1.6,2.8,2.3c0.9-0.1,1-1.3,2-1.5c0.6,0,0.9,1,1.8,0.9c0.5-0.9,1-1.9,1.4-2.9c2.6-0.3,4.3-2.4,6.5-3.5
			c1.7-0.7,3-2.1,3.8-3.7c0.6-1.1,1.4-2.2,2.3-3c0.9-0.7,1.7-1.5,2.3-2.5c-0.7-0.9-0.5-2.1,0.3-2.9c0.2-0.3,0.4-0.6,0.3-1
			c-0.2-1.6,0.8-2.5,1.7-3.6c0.6-0.7,1.1-1.5,1.7-2.1c0.8-0.7,1.1-1.7,0.8-2.7C902.5,594.1,903,592.1,904.5,590.9z M891.2,585.4
			c-0.2,0.8-0.3,1.6-0.2,2.4c0.2,2.3-0.8,4.2-1.5,6.2c-0.8,2.7-2.6,4.7-4.3,6.7c-1.1,1.5-2,3-2.7,4.7c-1.5,0.7-3.1,0.1-4.6,0.5
			c-0.8,0.5,0.3,1.6-0.6,2.2c-0.6,0.4-1.3,0.6-2.1,0.6c-0.6,0-1.2,0.3-1.7,0.7c-2.5,1.9-5.3,1.5-8.1,1.4c-0.7,0-1.2-0.6-1.2-1.3
			c-0.1-0.6-0.1-1.3-0.2-1.9c-1.8-1.3-3.6-2-5.9-1.3c-0.4,0.2-0.9,0.2-1.3,0c-1.9-1.2-4.1-1.5-6.1-2.2c0.8-1.7,2.3-2.4,3.6-3.5
			c-1-1.9-1-4.1,0.1-6c0.3-0.8,0.5-1.8,0.4-2.7c0.1-1.4,0-2.8,1.2-4c0.7-0.8,0.8-2.2,1-3.3c0.3-2,1.1-3.8,2.5-5.4
			c0.9-0.9,1.4-2.2,1.3-3.5c-0.1-0.9,0.1-1.8,0.7-2.6c1.4-2.2,2.4-4.7,2.8-7.3c0.4-2.2,1.3-4.4,2.8-6.1c0.2-0.3,0.6-0.5,0.7-0.9
			c0.9-4,4.6-6,6.3-9.4c0.1-0.3,0.3-0.5,0.5-0.6c3-1,4.3-4,7.1-5.6c1.7,2.3,3.2,4.7,4.6,7.3c2.6,5.1,3.8,10.5,4.7,16.1
			c0.5,3.1,0.7,6.3,0.7,9.5C891.7,579.3,891.5,582.3,891.2,585.4z"/>
		<path class="st1" d="M739.1,234.7c-4.8-3.8-9.5-7.5-14.3-11.4c-3.3-2.5-6.4-5.1-9.3-7.9c-1.5-1.6-2.3-3.7-2.2-5.9
			c0.1-5.8,0.4-11.6,0.7-17.4c0.2-1.8-0.6-3.6-2.2-4.6c-5.7-4.1-11.2-8.4-16.7-12.6c-1-0.8-2.3-1.2-3.6-1.1
			c-6.8,0.2-13.6-0.7-20.4-0.6c-0.3,0-0.5,0-0.8,0c-1.7-0.1-3.4-0.8-4.7-1.9c-7-5.7-14.2-11.4-21.3-17c-0.7-0.7-1.6-1.2-2.6-1.3
			c-1.6,3.4-3.5,6.7-5.8,9.7c0.3,1,1,1.8,1.8,2.4c4.8,4.6,9.6,9.1,14.3,13.8c1.3,1.4,3.1,2.1,5,2.1c7.9-0.1,15.8,0.1,23.7,0.1
			c1.7,0,3.4,0.6,4.8,1.6c3.8,2.8,7.6,5.6,11.5,8.2c3.2,2.2,4.1,5.1,3.4,8.7c-0.8,4.1-1.2,8.3-2,12.4c-0.4,1.5,0.3,3.1,1.6,3.9
			c8.1,6.6,16.2,13.1,24.4,19.7c1.3,1,2.5,2.1,3.7,3.2c1.2,1.1,1.4,2.9,0.4,4.2c-1.1,1.4-2.4,1.6-4.1,0.6c-1-0.6-1.9-1.4-2.8-2.1
			c-5.9-4.9-11.8-9.7-17.6-14.6c-3.6-3-7.1-5.9-10.7-8.9c-1.8-1.5-2.7-3.2-2.1-5.7c1.1-4.3,1.7-8.7,2.7-13.1
			c0.4-1.8,0.1-3.1-1.5-4.2c-3.1-2.1-6.1-4.3-9-6.6c-1.1-0.9-2.5-1.4-4-1.4c-7.4,0-14.7-0.1-22.1,0.1c-4,0.2-8-1.4-10.6-4.5
			c-4.6-5.2-10.1-9.4-14.9-14.4c-0.3-0.2-0.6-0.5-0.9-0.7c-1.8,1-3.7,2-5.4,3.1c-1.8,1.1-4.1,1.2-5.9,2.7c0.6,1.2,1.5,2.1,2.6,2.9
			c4.6,4,9.3,7.9,13.9,11.9c5.4,4.7,10.9,9.3,16.4,14c5.7,4.9,11.5,9.8,17.2,14.7c5.5,4.7,11,9.5,16.5,14.2c6,5.1,12,10.3,18,15.4
			c3,2.6,6,5.2,9.1,7.8c1.8,1.5,2.2,1.5,4,0c7.2-5.6,14.4-11.1,21.5-16.7c0.5-0.3,0.9-0.8,1-1.4C739.9,235.4,739.5,235,739.1,234.7z
			 M679.5,206c-2.8-0.2-4.9-2.5-4.8-5.3c0-3.1,2-5.1,4.8-5.1c3,0,5.1,2.3,5.1,5.5C685,203.6,681.9,206.1,679.5,206z"/>
		<path class="st4" d="M804.1,559.6c0.3-2.1,0.3-4.6,1.8-6.2c1.8-1.9,1.7-3.6,0.8-5.7c-0.1-0.4-0.2-0.7-0.3-1.1
			c0.3-1.1,1.4-1.5,1.4-2.7c-3.2-0.3-3.3-3.6-5-5.5c-1.5,0.1-3.1,0.5-4.5,1c-2.7,0.9-5.8,0.2-7.7-2c-0.5-0.5-1-1.3-1.9-1.4
			c-0.2,0.3-0.4,0.6-0.6,1c-1.1-1.3-2.8-2.1-4.6-2.2c-1.3-0.2-2.7-0.5-4-0.8c-0.4-0.1-1.1-0.1-1.2-0.5c-0.5-1.4-1.7-1.2-2.7-1.2
			c-2.5,0-5.1-0.1-7.6-0.4c-2.6-0.5-5.3,0-7.6,1.3c-1.1,0.6-2.3,1.1-3.5,1.6c-1.1,0.7-2.5,0.9-3.8,0.6c-1.5,2.7-3.4,5.1-5.5,7.3
			c-2.8,2.9-3.2,6.6-4.2,10.1c0.6,1.9-0.4,3.5-1.3,5.1c-0.4,0.7-0.7,1.5-0.8,2.3c-0.1,2.1-1,4-2.4,5.5c0.4,0.9,0.7,1.7,0.2,2.5
			c-0.8,1.2-1.2,2.7-2.4,3.6c-0.7,0.5-1.1,1.2-1.1,2.1c0,1.7-0.3,3.4,0.6,5c-1.5,1.4-2.2,3.4-2,5.5c0.1,5-1.3,9.7-1.8,14.5
			c0,0.4-0.1,0.7-0.3,1c-0.8,1.2-0.5,2.3,0,3.6c0.5,1.6,1.2,3.3,0,4.9c-0.3,0.4,0,1.1,0.1,1.6c0.6,3,2.2,5.7,4.6,7.5
			c2.1,1.6,4.3,3,6.4,4.6c2,1.5,4.4,2.2,6.7,0.1c0.6-0.4,1.3-0.7,2-0.7c1.6-0.3,3.1-1.2,4-2.5c2.6-3.2,5.4-6.2,9.1-8
			c0.9-0.3,1.5-1,1.8-1.9c0.5-1.4,1.5-2.5,2.7-3.3c0.8-0.6,1.6-1.2,2.1-2.1c1.1-1.8,2.5-3.3,4.2-4.6c1.2-1.1,2.3-2.3,3.1-3.7
			c0.4-0.7,0.8-1.6,1.4-2c1.6-0.9,2-2.5,2.5-4c0.9-2.4,2.1-4.6,3.7-6.6c1.4,3.2,1.4,3.8,0.6,7.8c-0.4,1.8-1,3.5-0.8,5.4
			c0.7,6.8,1.4,13.5,2.2,20.3c0,0.5,0.2,1.1,0.5,1.5c1.7,2.2,3.5,4.2,5.4,6.1c0.7-0.3,1.4-0.8,1.8-0.6c1.5,0.9,2.6-0.2,3.7-0.8
			c2.2-1.1,4.2-2.6,5.8-4.5c1.4-1.5,1.4-2.4,0.6-4.1c-0.5-1-1.6-0.8-2.3-1.4c0.9-1.4,0.8-3.2-0.2-4.5c-1.1-1.7-2.8-1.8-4.2-2.4
			c-0.7-2.7,0.9-4.9,1-7c-0.4-0.7-1.2-0.7-1.1-1.5c0.4-1.5,1.7-2.5,2-3.9c-0.1-0.9-1-1-1.1-1.7c0-0.7,0.9-1.3,0.6-2
			c-0.7-1.8-0.5-3.8,0.5-5.5c0.1-0.3,0.2-0.7,0.1-1.1c-0.2-1.3,0.4-2.7,1.5-3.4c-0.6-0.8-1-1.8-1.3-2.7c-0.2-0.5-0.2-1.1,0.1-1.6
			c1.4-2.4,1.3-5.1,1.2-7.6c-0.1-2.1-0.3-4,0.9-5.9C804.2,561.1,804,560.3,804.1,559.6z M789.9,555.6c-0.1,0.2-0.2,0.4-0.4,0.6
			c-1.5,1.9-2.2,4.1-3,6.3c-0.5,1.4-1.2,2.6-2.1,3.8c-3.4,4.5-6.9,8.9-10.3,13.4c-1.1,1.4-2.1,2.7-3.9,2.9c-0.4,1,0.2,1.8-0.4,3.1
			c-0.2,0.2-1.2,0.3-1.4,1.4c-0.2,1.4-1.3,2.1-2.5,2.6c-0.7,0.3-1.5,0.7-1.7,1.6c-0.4,1.6-1.7,2.2-2.8,3.2
			c-3.6,3.1-7.8,5.7-10.9,9.4c-0.6,0.7-1.6,0.3-2.4,1c-0.1,1.1-0.7,2.1-1.6,2.8c-0.9,0.5-1.6,0.3-1.9-0.7c-0.4-1.8-0.9-3.6,0.7-5.1
			c0.3-0.3,0.5-0.7,0.7-1.1c-0.3-1.1-1-2.2-0.8-3.2c0.1-1.5,0.4-2.9,0.8-4.4c0.5-1.4,0.8-2.9,0.9-4.5c0.2-2.1,0.6-4.1,1.1-6.1
			c0.1-1.1,0.6-2.1,1.3-2.9c0.3-0.2,0.6-0.6,0.6-0.9c-0.5-2.7,1.5-4.7,2-7.1c0.4-2,1.1-4,1.8-5.9c0.4-1.2,1.8-1.5,2.7-2.6
			c-0.2-0.4-0.4-0.9-0.7-1.2c-0.8-0.8-0.9-2.1-0.3-3c0.1-0.2,0.1-0.3,0.1-0.5c1.2-5.6,5-8.8,10-10.9c1.5-0.7,2.9-1.9,4.7-1.4
			c0.3,0.1,0.6,0,0.8,0.1c2.4,1.1,4.9,0.8,7.4,0.9c2.1,0,4.1,0.8,5.7,2.2c1.3,1.3,2.7,2.4,4.3,3.3
			C789.8,552.9,790.4,554.4,789.9,555.6z"/>
		<path class="st1" d="M795,427.8c-0.8-8.9-8.1-18.7-18.5-20.8c-5.8-1.2-11.6-1.2-17,1.7c-2.5,1.1-4.8,2.7-6.8,4.5
			c-0.7,0.7-1.6,1.3-2.6,1.5v-19.1c0-3.2,0-6.4,0-9.5c0-3.1,0.1-6.3-0.1-9.4c-3.1-0.6-12.8-0.5-14.9,0.1
			c-0.5,2.7-0.4,104.1,0.2,106.4c4.8,0.1,9.6,0.1,14.6,0c0.5-2.5,0-4.8,0.4-7.4c1.8,1.4,3.2,2.7,4.8,3.7c7.1,5,16.3,6.1,24.4,2.8
			c8.6-3.2,13.9-9.7,15.3-18.9c0.9-5.8,0.9-11.6,1-17.4C795.9,440,795.6,433.9,795,427.8z M780.3,445L780.3,445c0,2.5,0,5.1,0,7.6
			c0,3.3-0.8,6.5-2.3,9.4c-1.7,3.8-5.4,6.4-9.6,6.5c-1.6,0.1-3.3,0-4.9,0.1c-2.5,0-4.8-0.9-6.8-2.5c-3.3-2.4-4.7-5.7-5.4-9.4
			c-1.5-7.6-1.5-15.4,0-23c0.3-1.9,0.9-3.7,1.8-5.4c2.3-4.3,6.8-6.9,11.6-6.8c2-0.1,4,0.1,5.9,0.6c3.3,0.7,6.1,3,7.4,6.2
			c1.4,3,2.1,6.2,2.2,9.5C780.2,440.2,780.3,442.6,780.3,445z"/>
		<path class="st1" d="M871.8,445.1c-0.1-3.9-0.1-7.8-0.5-11.7c-0.7-8.6-4.8-15.3-11.2-20.7c-1.8-1.5-3.8-2.8-6-3.7
			c-6.8-2.9-14.4-3.5-21.6-1.7c-11.4,2.8-18.8,10.2-21.9,21.6c-1.2,4.4-1.2,9-1.5,13.5c-0.3,5.7,0.1,11.4,1.1,17.1
			c0.9,6.4,4,12.2,8.8,16.5c8,7.2,17.6,9.4,28.1,7.6c6.3-1.1,12.1-4.3,16.4-9c3.8-3.9,6.3-8.7,7.3-14
			C871.7,455.4,872.1,450.2,871.8,445.1z M856.1,455.4c-1,6.4-4.3,11-10.7,12.7c-6.2,1.7-11.9,0.5-16.5-4.2
			c-1.1-1.2-1.9-2.7-2.4-4.2c-0.9-2.5-1.5-5.1-1.6-7.7c-0.1-2.8-0.6-5.6-0.4-8.4c0.3-3.3,0.2-6.7,1-10c2.3-10.1,11.5-13,18.7-11.6
			c6.5,1.2,11.3,6.5,11.9,13c0.1,1,0.4,2,0.4,3c0.1,2.4,0,4.9,0,7.4C856.6,448.7,856.5,452,856.1,455.4z"/>
		<path class="st1" d="M719.1,445.1c0-3.9-0.1-7.8-0.5-11.7c-0.8-8.9-5-15.8-11.8-21.2c-1.6-1.3-3.4-2.4-5.3-3.2
			c-7-3-14.8-3.5-22.1-1.6c-11.3,3-18.5,10.3-21.4,21.7c-1.2,4.4-1.2,9-1.5,13.5c-0.3,5.6,0.1,11.3,1.1,16.8
			c0.9,6.4,4,12.2,8.7,16.6c8,7.2,17.6,9.4,28.1,7.7c6.4-1.1,12.2-4.4,16.6-9.2c3.7-3.8,6.1-8.6,7.1-13.8
			C719,455.5,719.3,450.3,719.1,445.1z M703.4,455.5c-1,6.4-4.8,11.2-11.1,12.7c-6,1.4-11.6,0.2-16.1-4.3c-1.1-1.2-1.9-2.6-2.5-4.2
			c-1-2.4-1.5-5-1.6-7.7c-0.1-2.8-0.6-5.6-0.4-8.4c0.3-3.3,0.3-6.7,1-10c2.3-10.2,11.6-13.1,18.8-11.7c6.8,1.4,10.9,6.7,11.8,12.9
			c0.4,3.4,0.5,6.7,0.5,10.1C703.9,448.5,703.8,452,703.4,455.5z"/>
		<path class="st1" d="M766.4,288.4c-3.7,0-7.4-0.8-10.9-2.2c-3.1-1.2-6.1-2.9-8.7-5.1c-1.6-1.3-1.8-1.3-3.6-0.1
			c-0.2,0.2-0.5,0.3-0.7,0.5c-12.8,9.4-25.7,18.8-38.5,28.1c-1.5,0.9-2.3,2.6-2.1,4.4c0.2,3.2,0.4,6.3,0.7,9.5c0.2,3-1,4.8-3.3,6.3
			c-3.6,2.3-7.1,4.8-10.6,7.2c-9,6.1-18.1,12.2-27.1,18.3c-10.5,7.1-21,14.1-31.4,21.3c-3.6,2.5-7,5.2-10.5,7.7
			c-0.8,0.5-1.2,1.4-1.2,2.3c0.1,3,0.1,6,0.1,9c0,0.2,0,0.4,0,0.5c0.3,2,1.2,2.6,3.2,2.3c1.3-0.3,2.6-1,3.6-1.9
			c10.7-7.9,21.5-15.9,32.2-23.9c17-12.7,34.1-25.4,51.1-38.1c19.4-14.5,38.9-29,58.3-43.6c1-0.6,1.8-1.4,2.2-2.4
			C768.2,288.5,767.3,288.4,766.4,288.4z M710.2,321.1c-2.3,0.1-4.2-1.6-4.3-3.8c0-0.1,0-0.2,0-0.4c0-2.7,2.2-5.1,4.6-5
			c2.5,0.1,4.4,2,4.6,4.5C715.2,318.3,712.9,321.5,710.2,321.1z M747.6,293.1c-0.6,0.6-1.2,1.1-1.9,1.5l-24.3,17.1
			c-0.1,0.1-0.3,0.2-0.4,0.3c-1.6,1-3.2,0.9-4.2-0.2c-1-1.4-0.8-3.3,0.4-4.5c0.6-0.6,1.3-1.2,2.1-1.7c7.8-5.5,15.5-11.1,23.3-16.6
			c0.7-0.6,1.5-1,2.4-1.2c1.6-0.2,3.2,0.9,3.4,2.5c0,0.2,0,0.4,0,0.6C748.5,291.8,748.2,292.6,747.6,293.1z"/>
		<path class="st1" d="M768.3,228.3c-15.9-0.7-27.7,13.4-27.7,26.7c0,13.9,11.3,27.4,27.5,27.3c14.5-0.1,26.8-11.2,27-26.6
			C795.3,238.8,780.7,228,768.3,228.3z M785.7,255.6c-0.1,9.6-8,17.4-17.6,17.3c-9.6-0.1-17.4-8-17.3-17.6c0,0,0,0,0,0
			c0.1-11,8.9-17.4,17.9-17.2c9.4,0,17,7.7,17,17.1C785.7,255.3,785.7,255.5,785.7,255.6z"/>
		<path class="st1" d="M539.5,191.4c-1.3-9-6.4-15.2-14.8-18.8c-2.5-1-5.2-1.6-7.9-1.8c-3-0.3-6,0-8.9,0.7
			c-4.4,1.2-8.4,3.7-11.4,7.1c-6,6.5-8,14.1-5.7,22.7c2.7,10.3,12,18.1,24,18.2c2.1,0,4.2-0.3,6.2-0.8
			C532.2,215.8,541.6,205.1,539.5,191.4z M530.3,194.7c0.4,7.4-6,15-14.8,14.9c-8.1,0-14.7-6.5-14.7-14.6c0-0.1,0-0.1,0-0.2
			c0-8.7,6.8-14.7,15-14.9C523.9,179.6,530.8,187,530.3,194.7z"/>
		<path class="st1" d="M611.5,115c-14.5,0.3-25.9,11-26,26c-0.1,16,13.3,26.3,26,26.4c13.8,0.1,26.3-12.1,25.7-25.9
			C637.9,127.5,625.2,114.7,611.5,115z M611.3,159.1c-9.8,0.2-17.8-7.6-18-17.3c0-0.2,0-0.4,0-0.6c0-10.4,8.1-17.8,18.3-18.2
			c9-0.3,18.1,7.5,17.9,18.1C629.4,151,621.3,159.1,611.3,159.1z"/>
		<path class="st1" d="M580.1,148.6c-1.1-4-0.8-8.1-1.1-12.3c-4.3,2.2-8.5,4.7-12.5,7.4c-4.1,2.6-8.2,5.3-12.4,7.9
			c-4,2.6-8.1,5.1-12.1,7.8c-4,2.7-8.3,5-12.3,8.2c2.8,1.9,5.3,3.4,7.4,5.6c4.2-2.4,8.3-4.7,12.3-7c3.8-2.1,7.6-4.2,11.4-6.4
			c2.3-1.5,5.2-1.4,7.4,0.2c1,0.6,2,1.3,2.9,2c1,0.7,2.1,1.4,3.1,2.2c1,0.9,2.4,1,3.5,0.1c1.7-1.2,3.6-2.2,5.3-3.3
			c0.8-0.3,1.4-1,1.6-1.8C582.6,156,581.1,152.4,580.1,148.6z M578.6,153.7c-0.2,2.8-2.5,5.1-5.3,5.2c-3.1-0.1-5.6-2.7-5.5-5.9
			c0.1-2.8,2.4-5.1,5.3-5c0.1,0,0.2,0,0.3,0c3,0,5.3,2.4,5.3,5.4C578.7,153.5,578.6,153.6,578.6,153.7z"/>
		<path class="st5" d="M768.2,266.7c-7.2,0.4-11.6-6.1-11.5-11.2c0-6.2,4.9-11.3,11.1-11.4c6.8,0,11.7,4.7,11.8,11.2
			C779.6,262.1,773.6,267.1,768.2,266.7z"/>
		<path class="st2" d="M506.7,194.4c-0.3-5.4,4.5-9,8.9-9c4.8,0.1,8.6,4,8.7,8.7c0,4.9-3.9,9-8.9,9.2
			C511.4,203.4,506.3,199.5,506.7,194.4z"/>
		<path class="st5" d="M611.5,129c5.9-0.8,11.8,5.8,11.6,12.1c-0.1,6.7-5.6,12.1-12.3,12c-6.7-0.1-12.1-5.6-12-12.3c0,0,0-0.1,0-0.1
			c0.1-6.6,5.6-11.9,12.2-11.8C611.2,128.9,611.4,128.9,611.5,129z"/>
	</g>
</g>
</svg>
